<svg xmlns:xlink="http://www.w3.org/1999/xlink"  width="192" height="108" viewBox="0 0 192 108" fill="none" xmlns="http://www.w3.org/2000/svg">
<path d="M145.338 39.1592C143.378 39.1592 140.768 40.0293 140.768 42.9599C140.768 45.4079 143.128 45.9068 143.828 46.0517C144.438 46.1806 145.068 46.2603 145.688 46.3408C146.528 46.4536 147.678 46.599 147.678 47.501C147.678 48.2901 146.708 48.8211 145.578 48.8211C144.918 48.8211 144.148 48.6771 143.388 48.2741C142.828 47.9684 142.588 47.7098 142.298 47.3877L140.138 48.7571C140.848 49.5781 142.118 51.0591 145.318 51.0591C146.918 51.0591 148.558 50.7211 149.588 49.5301C150.188 48.8381 150.488 47.9356 150.488 47.1142C150.488 45.8258 149.828 44.8122 148.528 44.3291C147.888 44.1036 146.258 43.7963 145.048 43.6513C144.568 43.5869 143.598 43.4585 143.598 42.5889C143.598 42.0413 144.158 41.3974 145.288 41.3974C146.018 41.3974 146.738 41.672 147.138 41.8974C147.588 42.1551 147.918 42.4616 148.268 42.8154L150.368 41.3174C149.378 40.4316 147.958 39.1592 145.338 39.1592ZM99.4547 39.417V41.333H101.902V39.417H99.4547ZM17.9937 39.4306C17.7728 39.4306 17.6915 39.5022 17.8042 39.6572C17.8042 39.6572 18.216 40.0481 18.9644 40.9053C20.0017 42.0905 19.5972 43.6728 19.5972 43.6728L14.0425 65.8948H22.1246L23.2866 61.0158H31.0876L32.3026 65.8948H42.9426C47.3116 65.8948 50.8636 65.4508 52.6146 62.7248C53.9246 65.2128 56.7446 66.3788 61.7206 65.9498C63.4536 65.8018 65.1496 64.9918 65.8766 63.6998L66.2206 64.7718C66.5066 65.4218 67.1006 65.8968 67.9466 65.8968H76.0756C76.2966 65.8968 76.3676 65.8308 76.2556 65.6768C76.2556 65.6768 75.8196 65.1938 75.0996 64.4148C74.2076 63.4558 74.2556 62.4398 74.2556 62.4398V39.4298L65.5486 39.4303V57.8323C65.4416 59.5753 63.7386 60.0173 62.7986 59.9863C61.4476 59.9453 60.6616 59.1833 60.6616 57.8853V39.4293L52.1816 39.4298C52.1816 39.4298 48.6396 39.4338 46.2046 39.4338C41.5626 39.4338 37.1826 40.1486 35.7006 44.0119L34.8256 40.59C34.6116 39.9101 33.8796 39.4298 33.1516 39.4298L17.9937 39.4306ZM85.9707 39.4326L81.7517 50.8026L84.7787 50.8016L85.3437 48.9826H89.5307L90.0937 50.8016H93.1207L88.9337 39.4316L85.9707 39.4326ZM151.718 39.9639V42.5732H150.488V44.0869H151.718V48.1451C151.718 48.9511 151.728 49.5471 152.068 50.0461C152.598 50.8191 153.538 50.8661 154.388 50.8661C154.838 50.8661 155.158 50.8181 155.698 50.7371V48.8061L154.808 48.8391C154.148 48.8391 154.148 48.4031 154.168 47.8877V44.1025H155.808V42.5889H154.178V39.9639H151.718ZM165.458 39.9639V42.5732H164.228V44.0869H165.458V48.1451C165.458 48.9511 165.468 49.5471 165.808 50.0461C166.338 50.8191 167.278 50.8661 168.128 50.8661C168.578 50.8661 168.898 50.8181 169.428 50.7371V48.8061L168.548 48.8391C167.888 48.8391 167.888 48.4031 167.898 47.8877V44.1025H169.538V42.5889H167.918V39.9639H165.458ZM174.178 42.1221C170.868 42.1221 169.868 44.7315 169.868 46.7607C169.868 49.5151 171.618 51.1081 174.118 51.1081C175.468 51.1081 176.568 50.5931 177.288 49.9171C177.728 49.5141 178.018 49.0961 178.308 48.6611L176.438 47.7099C176.128 48.3061 175.658 49.1921 174.308 49.1921C172.978 49.1921 172.378 48.1451 172.398 47.0986H178.398C178.368 46.1484 178.308 44.5062 177.208 43.331C176.128 42.1714 174.678 42.1221 174.178 42.1221ZM115.328 42.1318C112.496 42.2196 111.066 44.1672 111.066 46.583C111.066 49.6911 113.228 51.0441 115.588 51.0441C118.878 51.0441 120.098 48.7091 120.098 46.583C120.098 45.053 119.348 42.331 115.918 42.1377C115.708 42.1266 115.518 42.126 115.328 42.1318ZM87.4037 42.1377L88.8867 46.9365H86.0037C86.2617 46.0829 86.6957 44.7471 86.9367 43.8935C87.0977 43.3138 87.2587 42.717 87.4037 42.1377ZM133.278 42.1709C132.288 42.1709 131.298 42.2991 130.518 42.9111C129.768 43.5065 129.688 44.2004 129.638 44.7803H132.118C132.178 44.4743 132.328 43.7978 133.418 43.7978C134.308 43.7978 134.338 44.4406 134.368 44.8271V45.2783C133.328 45.4716 131.728 45.7618 131.048 46.0517C130.358 46.3416 129.278 47.1149 129.278 48.4681C129.278 49.6431 130.098 51.0281 132.038 51.0281C133.278 51.0281 133.988 50.4951 134.608 50.0281V50.8021H137.038C136.848 50.5121 136.798 50.3831 136.798 49.4811V44.5869C136.798 42.4127 134.308 42.1709 133.278 42.1709ZM160.208 42.1709C159.218 42.1709 158.218 42.2991 157.448 42.9111C156.688 43.5065 156.608 44.2004 156.568 44.7803H159.038C159.108 44.4743 159.248 43.7978 160.348 43.7978C161.228 43.7978 161.268 44.4406 161.298 44.8271V45.2783C160.248 45.4716 158.658 45.7618 157.978 46.0517C157.288 46.3416 156.208 47.1149 156.208 48.4681C156.208 49.6431 157.028 51.0281 158.958 51.0281C160.198 51.0281 160.908 50.4951 161.538 50.0281V50.8021H163.968C163.778 50.5121 163.728 50.3831 163.728 49.4811V44.5869C163.728 42.4127 161.238 42.1709 160.208 42.1709ZM125.798 42.1865C125.208 42.1865 124.658 42.3321 124.268 42.4931C123.838 42.7025 123.678 42.8951 123.438 43.1533V42.4111H120.938V50.8021H123.418V46.2607C123.418 45.2139 123.418 44.167 124.718 44.167C125.208 44.167 125.638 44.3611 125.838 44.8115C125.928 45.037 125.948 45.3104 125.948 46.0674V50.8021H128.408V45.0537C128.408 43.7492 128.188 42.991 127.298 42.5244C126.868 42.2828 126.298 42.1865 125.798 42.1865ZM98.6017 42.2998C97.3127 42.4286 96.7167 42.7981 96.1697 43.2646V42.3799H93.7537V50.8021H96.2337V46.0674C96.2337 45.0044 96.5877 44.8275 97.7787 44.6181L98.6017 44.4892V42.2998ZM99.4547 42.3799V50.8021H101.902V42.3799H99.4547ZM103.416 42.3955V44.2959H107.475L102.934 48.9341V50.8021H110.615V48.8701H106.139L110.615 44.2959V42.3955H103.416ZM174.168 43.8935C174.598 43.8935 175.068 44.0538 175.378 44.3603C175.728 44.7303 175.798 45.1974 175.838 45.5517H172.408C172.488 45.1974 172.568 44.8108 172.908 44.4404C173.148 44.1832 173.568 43.8935 174.168 43.8935ZM115.748 44.0947C116.088 44.1083 116.508 44.207 116.898 44.5693C117.368 45.0203 117.588 45.7465 117.588 46.6806C117.588 48.0011 116.928 49.0791 115.588 49.0791C114.208 49.0791 113.558 47.9041 113.558 46.5674C113.558 45.9876 113.678 45.4079 113.978 44.9248C114.318 44.3938 114.738 44.1514 115.448 44.1025C115.538 44.0945 115.638 44.0902 115.748 44.0947ZM27.1907 45.3291L29.8907 56.1961H24.4997L27.1907 45.3291ZM134.371 46.7763C134.361 47.646 134.321 48.4201 133.501 48.9341C133.241 49.0961 132.951 49.2081 132.651 49.2081C132.071 49.2081 131.711 48.7571 131.711 48.3541C131.711 47.7103 132.361 47.4686 132.781 47.3076L134.371 46.7763ZM161.301 46.7763C161.281 47.646 161.251 48.4201 160.431 48.9341C160.171 49.0961 159.881 49.2081 159.581 49.2081C159.001 49.2081 158.641 48.7571 158.641 48.3541C158.641 47.7103 159.291 47.4686 159.711 47.3076L161.301 46.7763ZM101.886 54.5151V56.4331H104.335V54.5151H101.886ZM136.211 54.5151V56.4331H138.651V54.5151H136.211ZM82.1257 54.5321V60.8761C82.1097 62.4221 82.1097 64.4201 84.2997 65.5481C85.0717 65.9501 86.0867 66.1591 86.9397 66.1591C87.4237 66.1591 89.9527 66.0611 91.1767 64.0971C91.8037 63.0661 91.8187 61.9711 91.8347 60.8761V54.5321H88.9847V61.6001C88.9687 62.4861 88.9687 63.8071 87.0357 63.8071C86.3277 63.8071 85.5547 63.6301 85.1997 63.0341C85.0067 62.6801 84.9907 62.1981 84.9907 61.6181V54.5321H82.1257ZM140.751 55.0631V57.6731H139.521V59.1841H140.751V63.2431C140.751 64.0491 140.761 64.6441 141.101 65.1431C141.631 65.9161 142.571 65.9661 143.421 65.9661C143.871 65.9661 144.191 65.9171 144.721 65.8371V63.9051L143.841 63.9361C143.181 63.9361 143.181 63.5031 143.201 62.9871V59.2021H144.841V57.6881H143.211V55.0631H140.751ZM117.381 57.2221C114.061 57.2221 113.061 59.8301 113.061 61.8601C113.061 64.6141 114.821 66.2061 117.311 66.2061C118.671 66.2061 119.761 65.6931 120.491 65.0161C120.921 64.6141 121.211 64.1941 121.501 63.7591L119.631 62.8091C119.331 63.4051 118.861 64.2901 117.511 64.2901C116.171 64.2901 115.571 63.2421 115.591 62.1961H121.601C121.571 61.2461 121.501 59.6041 120.411 58.4291C119.331 57.2691 117.881 57.2221 117.381 57.2221ZM131.521 57.2221C129.171 57.2221 127.981 58.6551 127.981 60.0401C127.981 60.6681 128.231 61.2481 128.601 61.6181C128.971 61.9881 129.491 62.1971 130.001 62.3431C130.371 62.4551 130.761 62.5361 131.131 62.6001C131.611 62.6811 132.191 62.7291 132.561 62.9231C132.711 63.0031 132.891 63.1151 132.891 63.4051C132.891 64.0331 131.981 64.2251 131.391 64.2251C130.451 64.2251 129.621 63.7281 128.941 63.0671L127.381 64.4831C127.911 64.9831 129.121 66.1101 131.451 66.1101C133.431 66.1101 135.431 65.1441 135.431 63.1631C135.431 61.1661 133.471 60.7151 131.781 60.4091C130.971 60.2641 130.441 60.1681 130.441 59.6841C130.441 59.4431 130.661 59.0571 131.631 59.0571C132.211 59.0571 132.951 59.2821 133.741 59.8931L135.271 58.4771C134.691 58.0751 133.501 57.2221 131.521 57.2221ZM97.9887 57.2861C97.3927 57.2861 96.8447 57.4301 96.4577 57.5911C96.0227 57.8001 95.8637 57.9931 95.6217 58.2511V57.5111H93.1237V65.9011H95.6047V61.3601C95.6047 60.3131 95.6047 59.2661 96.9087 59.2661C97.3917 59.2661 97.8267 59.4601 98.0207 59.9111C98.1167 60.1371 98.1337 60.4101 98.1337 61.1671V65.9011H100.597V60.1511C100.597 58.8471 100.371 58.0901 99.4847 57.6241C99.0507 57.3821 98.4887 57.2861 97.9887 57.2861ZM127.441 57.3971C126.151 57.5261 125.561 57.8981 125.011 58.3641V57.4791H122.601V65.9011H125.081V61.1671C125.081 60.1031 125.431 59.9271 126.621 59.7181L127.441 59.5891V57.3971ZM101.886 57.4791V65.9011H104.335V57.4791H101.886ZM136.211 57.4791V65.9011H138.651V57.4791H136.211ZM105.06 57.4951L107.78 65.9011H110.374L113.091 57.4951H110.55L110.034 59.5561C109.535 61.5371 109.488 61.7461 109.149 63.6141C108.876 62.0041 108.698 61.2311 107.667 57.4951H105.06ZM145.421 57.4951L147.931 65.6121C147.981 65.7891 148.041 65.9971 148.041 66.2061C148.041 66.8021 147.411 66.8041 147.011 66.8191H146.141V68.7841H147.931C148.571 68.7681 149.141 68.7361 149.721 68.1081C150.141 67.6411 150.311 67.1251 150.511 66.5771L153.471 57.4951H150.831L149.441 63.5181L148.061 57.4951H145.421ZM117.361 58.9931C117.801 58.9931 118.261 59.1541 118.571 59.4601C118.921 59.8301 118.991 60.2971 119.041 60.6511H115.611C115.691 60.2971 115.771 59.9111 116.111 59.5401C116.351 59.2831 116.771 58.9931 117.361 58.9931Z" fill="#545454"/>
<path d="M52.3887 41.214C52.3477 41.2186 52.3077 41.2402 52.2747 41.2804L48.9547 45.3878C48.9547 45.3878 47.2877 44.6815 45.7167 44.669C44.2527 44.657 43.1697 44.9182 42.5737 45.5011C42.2287 45.8397 42.0567 46.2745 42.0567 46.7979C42.0567 47.5121 42.4607 48.1022 43.3237 48.6492C44.0977 49.1322 45.1687 49.5432 46.3067 49.9722C47.7877 50.5362 49.4737 51.1722 50.8547 52.1242C53.4977 53.9462 53.7047 56.2332 53.7047 56.2332L58.8087 57.3842C58.9967 57.4262 59.0827 57.1582 58.9057 57.0812L53.9177 54.9032C53.8737 54.8842 53.8907 54.8172 53.9387 54.8192L59.4777 55.1752C59.6717 55.1872 59.7147 54.9082 59.5267 54.8602L54.2027 53.4972C54.1547 53.4852 54.1597 53.4162 54.2087 53.4112L59.7337 52.8952C59.9257 52.8782 59.9257 52.5992 59.7337 52.5812L54.2087 52.0652C54.1597 52.0612 54.1557 51.9942 54.2027 51.9812L59.5267 50.6162C59.7137 50.5682 59.6717 50.2892 59.4777 50.3022L53.9387 50.6572C53.8907 50.6602 53.8737 50.5952 53.9177 50.5752L58.9057 48.3952C59.0827 48.3182 58.9967 48.0502 58.8087 48.0932L53.3977 49.3132C53.3507 49.3242 53.3237 49.2612 53.3647 49.2352L57.8417 46.3194C58.0067 46.2117 57.8757 45.9588 57.6927 46.0323L52.6067 48.0752C52.5627 48.0932 52.5247 48.0342 52.5597 48.0012L56.3997 44.4386C56.5467 44.3017 56.3727 44.0688 56.2007 44.1729L51.5877 46.9796C51.5467 47.0043 51.5027 46.9534 51.5307 46.9151L54.6307 42.796C54.7527 42.6339 54.5377 42.4341 54.3847 42.5675L50.3727 46.0597C50.3367 46.0908 50.2847 46.0497 50.3067 46.0069L52.5637 41.464C52.6327 41.3254 52.5097 41.2 52.3887 41.214ZM33.9017 44.1475C33.7877 44.1751 33.7157 44.3308 33.8257 44.4327L35.3437 45.8409C35.3777 45.6149 35.4357 45.2943 35.4837 45.0557L34.0247 44.169C33.9827 44.143 33.9397 44.1384 33.9017 44.1475ZM32.4097 46.0284C32.3037 46.0737 32.2617 46.2351 32.3847 46.3155L35.3197 48.2272C35.2847 47.8949 35.2697 47.4546 35.2707 47.128L32.5327 46.0284C32.4877 46.0102 32.4447 46.0133 32.4097 46.0284ZM31.4237 48.0932C31.2347 48.0502 31.1487 48.3182 31.3257 48.3952L35.9487 50.4152C35.7447 50.0162 35.5587 49.4872 35.4527 49.0032L31.4237 48.0932ZM30.7477 50.3022C30.5557 50.2902 30.5097 50.5662 30.6967 50.6142L36.0407 51.9832C36.0857 51.9952 36.0807 52.0602 36.0347 52.0652L30.4897 52.5812C30.2997 52.5992 30.2997 52.8772 30.4897 52.8952L36.0227 53.4112C36.0707 53.4162 36.0757 53.4842 36.0287 53.4972L30.6967 54.8642C30.5107 54.9122 30.5557 55.1872 30.7477 55.1752L36.2947 54.8192C36.3427 54.8162 36.3587 54.8842 36.3137 54.9032L31.3257 57.0812C31.1487 57.1582 31.2347 57.4262 31.4237 57.3842L36.8137 56.1692C36.8657 56.1572 36.8947 56.2262 36.8517 56.2552L32.3847 59.1612C32.2207 59.2682 32.3507 59.5212 32.5327 59.4482L37.6067 57.4112C37.6557 57.3912 37.6957 57.4532 37.6577 57.4892L33.8217 61.0502C33.6757 61.1852 33.8487 61.4152 34.0187 61.3112L38.6127 58.5182C38.6607 58.4892 38.7127 58.5482 38.6797 58.5932L35.6047 62.6772C35.4827 62.8402 35.6997 63.0392 35.8527 62.9052L39.8177 59.4542C39.8627 59.4152 39.9287 59.4652 39.9017 59.5182L37.6677 64.0132C37.5757 64.1982 37.8267 64.3592 37.9567 64.1982L41.2187 60.1552C41.2187 60.1552 42.1447 60.6112 43.0267 60.6942C44.5927 60.8432 46.0157 60.4992 46.7947 59.7902C47.1997 59.4222 47.4017 58.9752 47.4017 58.4702C47.4017 56.5762 45.2897 55.8462 42.8317 55.0012C40.3077 54.1252 37.4337 53.1332 36.0717 50.6432L30.7477 50.3022ZM53.7497 56.4912C53.8517 56.9972 53.8417 57.8972 53.8417 57.8972L57.6927 59.4462C57.8767 59.5202 58.0067 59.2652 57.8417 59.1572L53.7497 56.4912ZM53.8117 58.6382C53.7937 59.0422 53.6927 59.7802 53.6927 59.7802L56.2127 61.3112C56.3827 61.4152 56.5577 61.1852 56.4117 61.0502L53.8117 58.6382ZM53.4057 61.0542C53.3107 61.3682 53.1287 61.8152 53.1287 61.8152L54.3847 62.9112C54.5377 63.0442 54.7527 62.8432 54.6307 62.6812L53.4057 61.0542Z" fill="white"/>
</svg>
