<svg xmlns:xlink="http://www.w3.org/1999/xlink"  width="192" height="108" viewBox="0 0 192 108" fill="none" xmlns="http://www.w3.org/2000/svg">
<g clip-path="url(#clip0_20827_81875)">
<path d="M39.3375 64.123V42.9976H44.1494V64.123H39.3375ZM132.876 56.2303C132.876 51.125 128.915 47.9562 124.279 47.9562C119.614 47.9562 115.682 51.1544 115.682 56.2303C115.682 61.3356 119.643 64.5338 124.279 64.5338C128.915 64.5338 132.876 61.3063 132.876 56.2303ZM128.123 56.2303C128.123 58.9003 126.333 60.3967 124.25 60.3967C122.167 60.3967 120.377 58.9003 120.377 56.2303C120.377 53.531 122.167 52.0933 124.25 52.0933C126.333 52.0933 128.123 53.531 128.123 56.2303ZM37.401 58.0494C37.401 55.6728 36.1687 53.8537 33.9682 53.0322C36.0514 51.8879 36.7849 50.3915 36.7849 48.631C36.7849 45.5503 34.555 42.9976 29.567 43.027H20.002V64.1523H29.9778C34.9951 64.123 37.401 61.629 37.401 58.0494ZM31.6796 49.2472C31.6796 50.6849 30.77 51.5064 29.0096 51.5064H25.0192V47.1053H29.0096C30.6233 47.1053 31.6796 47.8095 31.6796 49.2472ZM32.1197 57.7267C32.1197 59.1057 31.1515 60.0153 29.3617 60.0153H25.0192V55.4381H29.3617C31.0928 55.4381 32.1197 56.3183 32.1197 57.7267ZM79.2997 52.2693C77.9793 49.5113 75.5147 47.9856 71.7884 47.9856C67.3873 47.9856 63.4557 50.7436 63.4557 56.2303C63.4557 61.5703 66.9179 64.5338 71.7298 64.5338C75.1039 64.5338 77.95 63.1841 79.2997 60.2793L75.4267 58.2842C74.7225 59.5752 73.6369 60.3967 71.9058 60.3967C69.6759 60.3967 68.2382 58.8123 68.2382 56.2303C68.2382 53.6483 69.8813 52.0933 71.8765 52.0933C73.4315 52.0933 74.6051 52.7974 75.3387 54.3232L79.2997 52.2693ZM150.216 52.2693C148.896 49.5113 146.431 47.9856 142.705 47.9856C138.304 47.9856 134.372 50.7436 134.372 56.2303C134.372 61.5703 137.835 64.5338 142.646 64.5338C146.021 64.5338 148.867 63.1841 150.216 60.2793L146.343 58.2842C145.639 59.5752 144.554 60.3967 142.822 60.3967C140.593 60.3967 139.155 58.8123 139.155 56.2303C139.155 53.6483 140.798 52.0933 142.793 52.0933C144.348 52.0933 145.522 52.7974 146.255 54.3232L150.216 52.2693ZM109.873 64.123L105.853 57.0225H102.772V64.123H97.8137V42.9976H106.763C111.604 42.9976 114.978 45.3155 114.978 49.8634C114.978 52.7681 113.54 54.822 110.988 56.0836L115.624 64.123H109.873ZM102.802 52.8268H106.499C108.787 52.8268 109.902 51.5358 109.902 50.0101C109.902 48.1909 108.846 47.1934 106.499 47.1934H102.802V52.8268ZM62.6635 63.8589V60.5434C62.4581 60.6021 62.1647 60.6608 61.8419 60.6608C61.2258 60.6608 60.903 60.338 60.903 59.7805V54.2938C60.903 50.1861 58.145 48.0149 53.5971 48.0149C50.6337 48.0149 48.1104 49.1005 46.526 50.5089L49.196 53.5016C50.2523 52.5627 51.6607 51.9759 53.0397 51.9759C55.1522 51.9759 56.1498 53.0322 56.1498 54.7633V55.2621C55.1522 55.0273 53.8906 54.7926 52.3648 54.7926C48.5212 54.7926 46.0272 56.6411 46.0272 59.6925C46.0272 62.832 48.1104 64.4751 51.3379 64.4751C53.5385 64.4751 55.5043 63.5655 56.5312 62.3919C57.1474 63.9469 58.4971 64.3577 59.8174 64.3577C60.727 64.387 61.7832 64.2403 62.6635 63.8589ZM56.1791 58.9003C56.1791 60.338 54.8001 61.2769 53.2157 61.2769C51.7193 61.2769 50.9858 60.5141 50.9858 59.4578C50.9858 58.3428 51.8074 57.5213 53.4798 57.5213C54.5067 57.5213 55.4163 57.6974 56.1791 57.8734V58.9003ZM167.41 64.123L161.747 54.2938L167.058 48.5137H161.718L156.114 54.7339V43.027H151.331V64.1523H156.114V60.338L158.402 57.9027L161.982 64.1523H167.41V64.123ZM96.552 64.123L90.8893 54.2938L96.2 48.5137H90.8013L85.2559 54.7339V43.027H80.4733V64.1523H85.2559V60.338L87.5444 57.9027L91.124 64.1523H96.552V64.123ZM170.344 61.1889C171.342 61.1889 171.929 61.8051 171.929 62.744C171.929 63.6829 171.342 64.299 170.344 64.299C169.347 64.299 168.76 63.6829 168.76 62.744C168.76 61.8051 169.347 61.1889 170.344 61.1889ZM170.344 64.0936C171.136 64.0936 171.664 63.6242 171.664 62.744C171.664 61.8637 171.107 61.3943 170.344 61.3943C169.552 61.3943 169.024 61.8637 169.024 62.744C168.994 63.6535 169.552 64.0936 170.344 64.0936ZM169.728 61.9518H170.373C170.755 61.9518 170.96 62.1572 170.96 62.4506C170.96 62.7146 170.843 62.8613 170.638 62.9494L170.931 63.5068H170.638L170.373 63.008H170.021V63.5068H169.728V61.9518ZM170.021 62.1865V62.744H170.344C170.549 62.744 170.667 62.6853 170.667 62.4799C170.667 62.3039 170.579 62.2158 170.373 62.2158H170.021V62.1865Z" fill="#545454"/>
</g>
<defs>
<clipPath id="clip0_20827_81875">
<rect width="151.985" height="21.9979" fill="white" transform="translate(19.998 42.9948)"/>
</clipPath>
</defs>
</svg>
