<svg xmlns:xlink="http://www.w3.org/1999/xlink"  width="192" height="108" viewBox="0 0 192 108" fill="none" xmlns="http://www.w3.org/2000/svg">
<path d="M95.8194 45.9212C96.5723 43.2687 97.4723 43.1303 99.6186 45.2462C100.255 44.5755 100.869 43.8832 101.531 43.2341C101.942 42.8317 102.388 42.4553 102.868 42.1437C103.266 41.8884 103.734 41.7456 104.175 41.5595C104.404 41.46 104.647 41.3865 104.876 41.2869C107.693 40.0321 110.358 38.5046 112.985 36.8993C113.781 36.4103 114.711 36.0858 115.624 35.8565C116.871 35.5406 118.099 35.8695 119.263 36.3281C120.466 36.8041 121.656 37.3234 122.812 37.9032C124.352 38.6734 125.94 38.747 127.602 38.4873C131.18 37.9205 134.78 37.3796 138.406 37.5743C143.426 37.8426 148.363 38.6042 152.937 40.8889C154.767 41.8019 156.217 43.1519 157.502 44.7097C157.679 44.926 157.973 45.0991 158.25 45.177C159.423 45.5188 160.474 46.7737 160.384 47.9852C160.319 48.9156 160.561 49.6468 161.046 50.4387C162.625 53.0263 163.391 55.8692 163.399 58.9154C163.399 59.9928 163.525 61.0746 163.594 62.1521C163.711 63.9261 164.36 65.4493 165.593 66.756C166.822 68.0628 166.744 68.0671 166.082 69.7158C165.554 71.0312 165.143 72.3942 164.719 73.7486C164.581 74.1943 164.399 74.3933 163.906 74.3847C161.651 74.3544 159.401 74.363 157.147 74.35C156.952 74.35 156.757 74.3241 156.494 74.3068C156.515 74.0947 156.498 73.9 156.554 73.7226C157.008 72.2428 158.609 71.2648 160.124 71.5331C160.461 71.5937 160.803 71.6716 161.136 71.6673C161.34 71.6673 161.535 71.5072 161.734 71.4206C161.621 71.2389 161.552 70.9533 161.396 70.8841C160.267 70.4211 159.133 69.9624 157.973 69.5859C157.104 69.3047 156.199 69.1229 155.299 68.9369C154.412 68.7551 153.815 68.2619 153.482 67.4224C153.162 66.6219 152.846 65.8171 152.482 65.0339C152.301 64.6358 152.024 64.2766 151.734 63.8136C151.266 64.3632 150.864 64.8132 150.492 65.2848C149.28 66.808 148.077 68.3354 146.874 69.8672C146.372 70.5033 145.801 70.9966 144.975 71.2043C144.235 71.3947 144.032 71.8274 144.118 72.6019C144.161 72.9957 144.174 73.3894 144.174 73.7875C144.174 74.2116 143.919 74.402 143.512 74.402C140.449 74.3976 137.385 74.389 134.317 74.3717C133.807 74.3717 133.486 73.9952 133.703 73.5149C133.911 73.0476 134.261 72.5846 134.672 72.286C135.377 71.7754 136.217 71.637 137.091 71.862C137.576 71.9831 138.073 72.0524 138.701 72.1692C138.545 71.2086 138.363 70.3345 138.264 69.4475C138.099 67.9849 137.853 66.5137 137.909 65.0555C137.948 64.0516 138.406 63.0521 138.731 62.0698C138.817 61.8016 138.999 61.5463 138.692 61.3732C138.372 61.1914 137.853 60.8929 137.675 61.014C135.399 62.5718 132.911 62.4117 130.38 62.0395C130.124 62.0006 129.86 62.0352 129.501 62.0352C129.605 62.2862 129.67 62.4636 129.748 62.6324C130.336 63.9045 130.959 65.1637 131.513 66.4488C131.994 67.5566 131.972 68.647 131.21 69.6638C130.349 70.8148 129.532 72.0048 128.653 73.1428C128.48 73.3678 128.121 73.5712 127.848 73.5755C125.94 73.6144 124.028 73.6058 122.115 73.6058C121.972 73.6058 121.834 73.5712 121.695 73.5495C121.7 72.6538 122.483 71.6543 123.331 71.5201C123.88 71.4336 124.443 71.4336 125.001 71.4336C125.983 71.4293 126.524 70.6071 126.096 69.6941C125.957 69.3912 125.732 69.1056 125.486 68.885C123.699 67.2883 121.894 65.7132 119.947 64.004C119.813 64.2031 119.709 64.4194 119.553 64.5839C117.944 66.2671 116.282 67.8984 114.318 69.1662C113.534 69.6725 112.691 70.0836 111.856 70.5076C110.289 71.3038 108.952 72.3682 107.849 73.7399C107.663 73.9736 107.299 74.1986 107.014 74.1986C104.149 74.2332 101.284 74.2202 98.4156 74.2072C98.1128 74.2072 97.8099 74.1077 97.3469 74.0255C98.1906 73.0736 98.8224 72.1519 99.8955 71.7581C100.25 71.6283 100.709 71.7235 101.111 71.7711C101.626 71.836 102.133 71.9831 102.648 72.0437C103.188 72.1086 103.586 71.8577 103.82 71.36C103.902 71.1826 103.989 71.0009 104.045 70.8105C104.569 69.0148 105.451 67.4051 106.728 66.0551C107.485 65.2546 107.425 64.2896 107.58 63.3463C107.775 62.178 107.974 61.0054 108.251 59.8501C108.381 59.3048 108.697 58.8029 108.943 58.2447C108.956 58.2707 108.943 58.2144 108.926 58.2101C107.749 58.0067 106.576 57.8596 105.464 58.4784C104.621 58.9457 103.885 59.5212 103.336 60.339C102.089 62.1823 100.346 62.7362 98.2902 61.9833C97.0396 61.5246 95.8843 61.9011 94.69 62.0395C93.4006 62.1867 92.1198 62.3771 90.8346 62.5415C90.0904 62.6367 89.3721 62.5025 88.7793 62.0569C87.559 61.1438 86.3821 60.1746 85.1445 59.1923C86.0965 58.2014 86.9619 57.3101 87.8143 56.41C88.26 55.9384 88.736 55.4797 89.0865 54.9432C89.3201 54.5797 89.4932 54.0691 89.45 53.6494C89.3375 52.5503 89.5928 51.6243 90.3327 50.8108C90.9385 50.1444 91.514 49.4478 92.1154 48.7814C92.4919 48.3617 92.6909 47.9117 92.6693 47.3189C92.639 46.5443 92.9938 45.9299 93.6862 45.5404C94.24 45.2289 94.7809 45.2332 95.3131 45.5967C95.4603 45.6962 95.6117 45.7828 95.8108 45.9082L95.8194 45.9212Z" fill="#545454"/>
<path d="M56.6474 50.2223C56.9633 50.2223 57.1926 50.218 57.4176 50.2223C58.1186 50.2439 58.8283 50.2223 59.5206 50.3175C60.2475 50.4127 60.5591 50.9146 60.4682 51.6329C60.3125 52.8142 59.6288 53.4157 58.4518 53.433C57.7681 53.4459 57.0845 53.5065 56.4008 53.5022C55.8815 53.5022 55.7431 53.7878 55.6695 54.2248C55.4661 55.4667 55.2498 56.7085 55.0161 57.9461C54.9382 58.3485 54.8387 58.7639 54.6656 59.1317C54.5272 59.4259 54.2978 59.7202 54.0339 59.9019C53.3935 60.3476 52.8786 60.1875 52.554 59.4735C52.0867 58.448 52.0478 57.349 52.0521 56.2456C52.0521 55.5835 52.0521 54.9215 52.0521 54.2162C50.4641 54.2551 48.9323 54.4801 47.4438 55.021C44.7177 56.0162 42.433 57.6778 40.3474 59.651C37.1886 62.6366 34.6313 66.1329 31.8663 69.4561C30.3346 71.2951 28.7076 73.0605 27.0243 74.7611C25.8041 75.9986 24.3416 76.9722 22.641 77.4438C18.976 78.4694 15.8822 76.8164 14.5537 73.2163C13.8095 71.1956 13.9133 69.1445 14.2941 67.0848C15.0124 63.2294 16.6567 59.7332 18.5649 56.3537C20.9708 52.0916 23.7185 48.0587 26.9897 44.4067C29.1316 42.0182 31.386 39.7291 34.1034 37.9637C35.6222 36.9728 37.2189 36.181 39.0622 35.9603C41.2907 35.6963 43.2379 37.1892 43.4672 39.4219C43.6533 41.2782 43.2249 43.0394 42.5239 44.7399C41.2647 47.7948 39.4473 50.4819 37.0502 52.7579C36.6088 53.1777 36.1025 53.5368 35.5833 53.8527C34.9515 54.2378 34.1813 54.0604 33.6318 53.4806C33.1774 53.0046 33.0476 52.1175 33.4803 51.5853C33.952 51.0055 34.4929 50.4559 35.0857 50.0016C36.6261 48.8117 37.9935 47.4746 39.0839 45.8606C40.0791 44.3894 40.9272 42.8533 41.2301 41.0705C41.2561 40.9104 41.2777 40.7503 41.282 40.5859C41.3426 38.8767 40.5032 38.1454 38.8805 38.7166C37.829 39.0844 36.8165 39.6642 35.9078 40.322C32.8659 42.5201 30.3129 45.2418 27.92 48.1237C24.5406 52.1954 21.6674 56.5744 19.7203 61.5202C18.9241 63.5496 18.2318 65.618 17.9808 67.7988C17.8683 68.7594 17.8769 69.7373 17.8986 70.7023C17.9202 71.7148 18.4048 72.5629 19.0366 73.3288C20.339 74.9082 22.1824 75.2587 23.9781 74.2721C25.3584 73.5149 26.4359 72.3942 27.483 71.2518C29.3869 69.1705 30.8625 66.769 32.4635 64.4583C35.0035 60.7846 37.5564 57.1153 40.2262 53.5368C43.5451 49.0886 46.9721 44.7226 50.3862 40.3479C52.4459 37.7084 54.8733 35.4194 57.4176 33.2559C57.9585 32.7972 58.6076 32.4554 59.2437 32.1265C60.425 31.5164 61.801 32.6371 61.6885 33.879C61.6236 34.5843 61.4591 35.3069 61.2082 35.9689C59.7283 39.8719 58.3307 43.8009 57.2446 47.8381C57.0412 48.5953 56.8595 49.3569 56.6474 50.2136V50.2223ZM57.1883 37.9377C57.1494 37.9118 57.1104 37.8858 57.0758 37.8642C57.0023 37.9075 56.9157 37.9377 56.8551 37.994C55.7777 38.9503 54.631 39.8373 53.6444 40.8801C51.5761 43.0653 49.5381 45.2851 47.5866 47.5741C45.6394 49.8631 43.8134 52.256 41.9441 54.6099C41.8272 54.757 41.7796 54.9561 41.6671 55.1984C41.8186 55.1508 41.8575 55.1508 41.8835 55.1292C45.1677 52.9873 48.7332 51.568 52.6146 50.9492C52.7617 50.9233 52.9564 50.7112 52.9997 50.5555C53.9863 46.9424 55.1806 43.4028 56.496 39.8979C56.7383 39.2488 56.959 38.5911 57.1926 37.9377H57.1883Z" fill="#545454"/>
<path d="M178.044 82.8053C146.21 80.0662 114.384 80.3042 82.5675 83C82.5502 82.9394 82.5329 82.8832 82.5156 82.8226C82.9137 82.6235 83.2988 82.3812 83.7185 82.2298C88.1451 80.6417 92.6626 79.3609 97.2969 78.5648C101.001 77.9243 104.722 77.3272 108.456 76.8859C111.836 76.4878 115.241 76.3233 118.634 76.0551C124.302 75.605 129.984 75.7175 135.661 75.7738C139.209 75.8127 142.757 75.9988 146.297 76.2671C149.758 76.531 153.224 76.8599 156.656 77.3791C160.567 77.9676 164.475 78.6556 168.321 79.5557C171.445 80.2869 174.487 81.3946 177.564 82.3379C177.746 82.3942 177.914 82.4807 178.092 82.55C178.079 82.6365 178.066 82.7187 178.053 82.8053H178.044Z" fill="#545454"/>
<path d="M85.2148 30.9411C85.3793 30.9108 85.5437 30.8545 85.7081 30.8545C87.5082 30.8632 89.3083 30.8675 91.1083 30.8978C91.5453 30.9064 91.7444 30.7507 91.8699 30.3353C92.3675 28.665 92.8954 27.0034 93.419 25.3418C93.4579 25.2207 93.5488 25.1125 93.6137 25C93.7132 25.1082 93.8646 25.1947 93.9079 25.3202C94.4445 26.9775 94.9767 28.6391 95.4743 30.3093C95.5998 30.7247 95.7686 30.8891 96.2186 30.8805C97.984 30.8415 99.7495 30.8415 101.515 30.8372C101.701 30.8372 101.891 30.8848 102.246 30.9324C101.705 31.3002 101.294 31.5728 100.896 31.8584C99.6932 32.7152 98.5033 33.5892 97.296 34.4373C97.0104 34.6407 96.9585 34.8268 97.0797 35.1599C97.7114 36.9167 98.3172 38.6865 98.9273 40.4519C98.9576 40.5471 98.9533 40.651 98.9792 40.8371C97.1835 39.5476 95.457 38.3057 93.7219 37.0595C91.9824 38.3403 90.2732 39.5995 88.5597 40.8587C88.5251 40.8284 88.4904 40.7981 88.4558 40.7678C88.6592 40.2399 88.8755 39.7207 89.0573 39.1884C89.5159 37.8254 89.9703 36.4624 90.3943 35.0907C90.4376 34.9436 90.3035 34.6494 90.165 34.5498C88.6332 33.4464 87.0841 32.3647 85.535 31.2786C85.4355 31.2093 85.3273 31.1444 85.2235 31.0795C85.2235 31.0319 85.2235 30.9887 85.2235 30.9411H85.2148Z" fill="#545454"/>
<path d="M51.9309 64.1729C51.403 64.6446 50.9098 65.1162 50.3732 65.5446C50.2867 65.6138 49.9751 65.536 49.8626 65.4278C48.9193 64.5191 47.8072 64.0474 46.5005 64.0474C44.2158 64.0431 42.4287 65.8042 42.2989 68.05C42.1604 70.4948 44.3672 72.3035 46.2452 72.39C47.6428 72.4549 48.8587 72.1434 49.6895 70.9188C49.789 70.776 49.8583 70.6116 50.0011 70.3563H46.4702C46.4702 69.6337 46.4529 68.9933 46.4875 68.3529C46.4918 68.2534 46.7212 68.0933 46.8466 68.0889C48.6683 68.0716 50.49 68.0803 52.3074 68.0673C52.7141 68.0673 52.7141 68.3269 52.7271 68.6038C52.8613 71.2693 50.6285 74.0862 47.9933 74.5319C45.9639 74.8738 44.047 74.6055 42.3508 73.3247C40.3734 71.8275 39.4127 68.9197 40.0878 66.4273C40.7541 63.9609 42.9696 62.0483 45.5052 61.7887C47.8592 61.5464 49.9881 62.0181 51.6583 63.8441C51.7059 63.896 51.7449 63.9566 51.9223 64.1773L51.9309 64.1729Z" fill="#545454"/>
<path d="M59.8404 74.653C56.2144 74.6443 53.4321 71.7842 53.4277 68.0672C53.4277 64.6532 56.3961 61.7021 59.8361 61.7064C63.2458 61.7064 66.2012 64.6099 66.2834 67.8509C66.3916 72.1087 63.0381 74.8174 59.8404 74.6487V74.653ZM63.8257 68.2187C63.9295 65.6484 61.6275 63.9522 59.7496 64.0301C57.4908 64.1253 55.8033 65.9513 55.8509 68.3441C55.8985 70.6721 57.7202 72.4375 60.0179 72.3813C62.1424 72.3294 63.8819 70.4255 63.8257 68.2187Z" fill="#545454"/>
<path d="M65.7934 62.0222C66.5593 62.0222 67.2559 62.0006 67.9526 62.0395C68.0911 62.0482 68.2858 62.2429 68.342 62.39C69.2637 64.943 70.1681 67.5003 71.0681 70.0619C71.12 70.2134 71.1416 70.3735 71.2888 70.5812C71.4186 70.2913 71.5614 70.0057 71.6695 69.7071C72.535 67.3229 73.4047 64.943 74.2398 62.5501C74.3783 62.1564 74.573 62.0006 74.9711 62.0093C75.5596 62.0222 76.1524 62.0093 76.8361 62.0093C76.7712 62.2516 76.7409 62.416 76.6846 62.5718C75.3389 66.3277 73.9888 70.0836 72.6431 73.8394C72.5047 74.2246 72.297 74.4452 71.8556 74.4106C71.4056 74.3803 70.9469 74.4366 70.5099 74.3587C70.3108 74.3241 70.0642 74.0818 69.9906 73.8784C68.844 70.698 67.7233 67.5133 66.5896 64.3286C66.3732 63.7184 66.1439 63.1127 65.9275 62.5069C65.8756 62.3597 65.8453 62.2083 65.7891 62.0179L65.7934 62.0222Z" fill="#545454"/>
<path d="M39.8276 72.7102C39.832 73.9391 38.7415 75.0078 37.4521 75.0338C36.1496 75.0598 35.0246 73.9131 35.0333 72.576C35.0419 71.3645 36.2232 70.2264 37.478 70.2264C38.7156 70.2264 39.8233 71.3947 39.832 72.7145L39.8276 72.7102Z" fill="#545454"/>
</svg>
