<svg xmlns:xlink="http://www.w3.org/1999/xlink"  width="192" height="108" viewBox="0 0 192 108" fill="none" xmlns="http://www.w3.org/2000/svg">
<g clip-path="url(#clip0_18397_43971)">
<path d="M20 61.2852V47H31.4352V49.85H22.85V52.7H28.55V55.5852H22.85V58.4352H31.4352V61.2852H20Z" fill="#545454"/>
<path d="M43.8211 61.2852L38.0859 47H41.147L45.2637 57.1685L49.31 47H52.3711L46.6711 61.2852H43.8211Z" fill="#545454"/>
<path d="M59.7949 61.2852V47H71.2301V49.85H62.6449V52.7H68.3449V55.5852H62.6449V58.4352H71.2301V61.2852H59.7949Z" fill="#545454"/>
<path d="M90.124 55.0222L92.1647 61.2852H89.174L87.3092 55.5852H82.3129V61.2852H79.4629V47H88.0129C88.5792 46.9924 89.1415 47.0974 89.6669 47.3088C90.1924 47.5202 90.6707 47.8338 91.074 48.2315C91.4809 48.628 91.8005 49.1051 92.0126 49.6322C92.2246 50.1593 92.3244 50.7248 92.3055 51.2926C92.324 52.0555 92.1297 52.8085 91.7444 53.4672C91.3592 54.126 90.798 54.6644 90.124 55.0222ZM82.3129 52.7H88.0129C88.2027 52.7021 88.3909 52.6657 88.5662 52.5932C88.7416 52.5206 88.9004 52.4133 89.0333 52.2778C89.1713 52.1469 89.2803 51.9884 89.3531 51.8126C89.4258 51.6368 89.4607 51.4476 89.4555 51.2574C89.4555 51.068 89.4182 50.8804 89.3457 50.7054C89.2732 50.5303 89.1669 50.3713 89.033 50.2374C88.899 50.1034 88.74 49.9971 88.5649 49.9246C88.3899 49.8521 88.2023 49.8148 88.0129 49.8148H82.3129V52.7Z" fill="#545454"/>
<path d="M100.785 61.2852V47H103.635V58.4352H110.778V61.2852H100.785Z" fill="#545454"/>
<path d="M127.948 58.4352H122.072L120.911 61.2852H117.85L123.585 47H126.435L132.17 61.2852H129.109L127.948 58.4352ZM126.787 55.5852L124.992 51.1167L123.198 55.5852H126.787Z" fill="#545454"/>
<path d="M151.944 47V61.2852H149.094L141.952 51.7852V61.2852H139.102V47H141.952L149.094 56.5V47H151.944Z" fill="#545454"/>
<path d="M160.564 61.2852V47H172V49.85H163.414V52.7H169.114V55.5852H163.414V58.4352H172V61.2852H160.564Z" fill="#545454"/>
</g>
<defs>
<clipPath id="clip0_18397_43971">
<rect width="152" height="14.2852" fill="white" transform="translate(20 47)"/>
</clipPath>
</defs>
</svg>
