<svg xmlns:xlink="http://www.w3.org/1999/xlink"  width="192" height="109" viewBox="0 0 192 109" fill="none" xmlns="http://www.w3.org/2000/svg">
<path d="M78.0195 60.3214H87.49V57.4405H81.4965V54.7914H86.596V51.8774H81.4965V49.3607H87.49V46.4799H78.0195V60.3214Z" fill="#545454"/>
<path d="M106.297 49.3607C104.84 49.3607 103.847 49.7912 103.019 50.9833H102.953L102.522 49.6587H100.006V64.0301H103.284V59.4604H103.35C103.979 60.1558 104.874 60.52 106.132 60.52C109.079 60.52 111.165 58.0696 111.165 55.0894V54.6589C111.165 51.3807 108.715 49.3607 106.297 49.3607ZM105.436 57.8709C103.913 57.8709 103.218 56.6126 103.218 54.9238C103.218 53.3012 103.913 52.076 105.436 52.076C106.96 52.076 107.655 53.4006 107.655 55.0232C107.688 56.6126 106.927 57.8709 105.436 57.8709Z" fill="#545454"/>
<path d="M122.424 54.6589C122.424 51.0826 119.908 49.3607 117.192 49.3607C114.113 49.3607 111.762 51.5131 111.762 54.8907V55.2549C111.762 58.6657 114.345 60.6856 117.358 60.6856C119.808 60.6856 121.961 59.4935 122.457 57.0431H119.312C118.947 57.8709 118.252 58.1689 117.424 58.1689C116.033 58.1689 115.272 57.1755 115.106 55.851H122.358C122.358 55.553 122.424 55.0894 122.424 54.6589ZM115.139 53.6655C115.272 52.5396 115.967 51.7118 117.225 51.7118C118.351 51.7118 119.113 52.4734 119.113 53.6655H115.139Z" fill="#545454"/>
<path d="M129.346 49.3607C128.022 49.3607 126.962 49.8574 126.201 51.0495H126.134L125.704 49.6587H123.121V60.2882H126.466V54.1291C126.466 52.8045 127.095 52.1092 128.221 52.1092C129.115 52.1092 129.843 52.6721 129.843 54.1291V60.2882H133.188V53.1688C133.188 51.0826 131.996 49.3607 129.346 49.3607Z" fill="#545454"/>
<path d="M138.187 53.4667C137.624 53.3343 137.194 53.1025 137.194 52.4733C137.194 51.9766 137.558 51.6455 138.32 51.6455C139.148 51.6455 139.578 52.076 139.578 52.7714H142.592V52.5727C142.592 50.3541 140.572 49.4269 138.254 49.4269C136.234 49.4269 133.916 50.2547 133.916 52.7714V52.9038C133.916 53.6654 134.181 54.3608 134.677 54.8575C135.737 55.9172 137.326 56.0496 138.452 56.3145C139.346 56.5132 139.578 56.9437 139.578 57.4404C139.578 58.0695 139.081 58.4338 138.32 58.4338C137.426 58.4338 136.863 57.9371 136.797 56.9106H133.816V57.1092C133.949 59.6921 135.903 60.6855 138.353 60.6855C140.505 60.6855 142.89 59.6921 142.89 57.2086V56.9437C142.89 56.1821 142.625 55.4867 142.194 54.99C141.201 53.831 139.512 53.6654 138.187 53.4667Z" fill="#545454"/>
<path d="M146.93 49.6919H143.586V60.3214H146.93V49.6919Z" fill="#545454"/>
<path d="M99.3126 49.6919H95.6039L93.8489 52.341L92.0276 49.6919H88.2858L91.8289 54.6589L87.7891 60.3214H91.4978L93.7164 57.1093L95.9681 60.3214H99.8093L95.6701 54.5927L99.3126 49.6919Z" fill="#545454"/>
<path d="M145.241 44.5261C144.115 44.5261 143.221 45.4202 143.221 46.5461C143.221 47.6719 144.115 48.566 145.241 48.566C146.367 48.566 147.261 47.6719 147.261 46.5461C147.294 45.4533 146.367 44.5261 145.241 44.5261Z" fill="#545454"/>
<path d="M152.923 49.6919V49.3277C152.923 48.4336 153.552 47.5064 154.546 47.5064C154.678 47.5064 155.539 47.5064 155.539 47.5064V44.5593H154.347C151.499 44.6256 149.612 46.7779 149.612 49.5264V49.6588H147.658V52.1755H149.612V60.2221H152.956V52.1755H155.109L157.89 59.4936L155.937 64.0301H159.414L165.341 49.6588H161.864L159.546 56.0167L157.46 49.6588H152.923V49.6919Z" fill="#545454"/>
<path d="M78.0195 60.3214H87.49V57.4405H81.4965V54.7914H86.596V51.8774H81.4965V49.3607H87.49V46.4799H78.0195V60.3214Z" fill="#545454"/>
<path d="M106.297 49.3607C104.84 49.3607 103.847 49.7912 103.019 50.9833H102.953L102.522 49.6587H100.006V64.0301H103.284V59.4604H103.35C103.979 60.1558 104.874 60.52 106.132 60.52C109.079 60.52 111.165 58.0696 111.165 55.0894V54.6589C111.165 51.3807 108.715 49.3607 106.297 49.3607ZM105.436 57.8709C103.913 57.8709 103.218 56.6126 103.218 54.9238C103.218 53.3012 103.913 52.076 105.436 52.076C106.96 52.076 107.655 53.4006 107.655 55.0232C107.688 56.6126 106.927 57.8709 105.436 57.8709Z" fill="#545454"/>
<path d="M122.424 54.6589C122.424 51.0826 119.908 49.3607 117.192 49.3607C114.113 49.3607 111.762 51.5131 111.762 54.8907V55.2549C111.762 58.6657 114.345 60.6856 117.358 60.6856C119.808 60.6856 121.961 59.4935 122.457 57.0431H119.312C118.947 57.8709 118.252 58.1689 117.424 58.1689C116.033 58.1689 115.272 57.1755 115.106 55.851H122.358C122.358 55.553 122.424 55.0894 122.424 54.6589ZM115.139 53.6655C115.272 52.5396 115.967 51.7118 117.225 51.7118C118.351 51.7118 119.113 52.4734 119.113 53.6655H115.139Z" fill="#545454"/>
<path d="M129.346 49.3607C128.022 49.3607 126.962 49.8574 126.201 51.0495H126.134L125.704 49.6587H123.121V60.2882H126.466V54.1291C126.466 52.8045 127.095 52.1092 128.221 52.1092C129.115 52.1092 129.843 52.6721 129.843 54.1291V60.2882H133.188V53.1688C133.188 51.0826 131.996 49.3607 129.346 49.3607Z" fill="#545454"/>
<path d="M138.187 53.4667C137.624 53.3343 137.194 53.1025 137.194 52.4733C137.194 51.9766 137.558 51.6455 138.32 51.6455C139.148 51.6455 139.578 52.076 139.578 52.7714H142.592V52.5727C142.592 50.3541 140.572 49.4269 138.254 49.4269C136.234 49.4269 133.916 50.2547 133.916 52.7714V52.9038C133.916 53.6654 134.181 54.3608 134.677 54.8575C135.737 55.9172 137.326 56.0496 138.452 56.3145C139.346 56.5132 139.578 56.9437 139.578 57.4404C139.578 58.0695 139.081 58.4338 138.32 58.4338C137.426 58.4338 136.863 57.9371 136.797 56.9106H133.816V57.1092C133.949 59.6921 135.903 60.6855 138.353 60.6855C140.505 60.6855 142.89 59.6921 142.89 57.2086V56.9437C142.89 56.1821 142.625 55.4867 142.194 54.99C141.201 53.831 139.512 53.6654 138.187 53.4667Z" fill="#545454"/>
<path d="M146.93 49.6919H143.586V60.3214H146.93V49.6919Z" fill="#545454"/>
<path d="M99.3126 49.6919H95.6039L93.8489 52.341L92.0276 49.6919H88.2858L91.8289 54.6589L87.7891 60.3214H91.4978L93.7164 57.1093L95.9681 60.3214H99.8093L95.6701 54.5927L99.3126 49.6919Z" fill="#545454"/>
<path d="M145.241 44.5261C144.115 44.5261 143.221 45.4202 143.221 46.5461C143.221 47.6719 144.115 48.566 145.241 48.566C146.367 48.566 147.261 47.6719 147.261 46.5461C147.294 45.4533 146.367 44.5261 145.241 44.5261Z" fill="#545454"/>
<path d="M152.923 49.6919V49.3277C152.923 48.4336 153.552 47.5064 154.546 47.5064C154.678 47.5064 155.539 47.5064 155.539 47.5064V44.5593H154.347C151.499 44.6256 149.612 46.7779 149.612 49.5264V49.6588H147.658V52.1755H149.612V60.2221H152.956V52.1755H155.109L157.89 59.4936L155.937 64.0301H159.414L165.341 49.6588H161.864L159.546 56.0167L157.46 49.6588H152.923V49.6919Z" fill="#545454"/>
<path d="M41.5957 64.3944H55.6359V60.2221H46.7283V56.3147H54.3113V52.043H46.7283V48.3012H55.6359V44.162H41.5957V64.3944Z" fill="#545454"/>
<path d="M66.1651 54.2948C66.1651 58.5003 64.675 62.3746 62.2246 65.421L65.3373 68.5337C68.5824 64.7256 70.5692 59.7586 70.5692 54.2948C70.5692 48.9304 68.6487 44.0296 65.4697 40.2546L62.3571 43.3673C64.7412 46.3475 66.1651 50.1887 66.1651 54.2948Z" fill="#545454"/>
<path d="M59.7074 67.9045C56.6609 70.355 52.8198 71.8451 48.5812 71.8451C44.442 71.8451 40.6339 70.3881 37.6537 68.037L34.541 71.1497C38.3491 74.3617 43.283 76.2492 48.5812 76.2492C54.0118 76.2492 58.9789 74.2624 62.8201 71.0172L59.7074 67.9045Z" fill="#545454"/>
<path d="M35.1372 65.5864C32.5875 62.5069 31.0643 58.5994 31.0643 54.2947C31.0643 44.5924 38.9122 36.7444 48.6145 36.7444C52.9193 36.7444 56.8267 38.2677 59.9063 40.8174L63.0189 37.7047C59.1446 34.3603 54.1114 32.3403 48.6145 32.3403C36.4949 32.3403 26.6602 42.1751 26.6602 54.2947C26.6602 59.7915 28.6801 64.8248 32.0246 68.6991L35.1372 65.5864Z" fill="#545454"/>
</svg>
