<svg xmlns:xlink="http://www.w3.org/1999/xlink"  width="192" height="108" viewBox="0 0 192 108" fill="none" xmlns="http://www.w3.org/2000/svg">
<g clip-path="url(#clip0_17099_42323)">
<path d="M84.9171 53.9448L89.3181 50.0093C89.4936 49.7929 89.6016 49.536 89.6016 49.252C89.6016 48.8598 89.4261 48.454 89.0211 48.0889C88.6296 47.7238 88.2651 47.5479 87.8601 47.5479C87.5766 47.5479 87.3201 47.6561 87.1041 47.8725L79.9896 54.4587V39.1631C79.9896 38.8385 79.8141 38.5545 79.4496 38.3381C79.1256 38.1217 78.6531 38.0135 78.1536 38.0135C77.6136 38.0135 77.2086 38.1217 76.8846 38.3381C76.5606 38.5545 76.4121 38.8115 76.4121 39.1631V62.7759C76.4121 63.0599 76.5876 63.3574 76.9116 63.6414C77.2356 63.8984 77.6271 64.0066 78.1401 64.0066C78.6531 64.0066 79.0851 63.8984 79.4361 63.6414C79.8006 63.3845 79.9761 63.1005 79.9761 62.8165V58.5159L82.4601 56.2438L87.4821 63.6955C87.7386 64.0201 88.0221 64.1959 88.4271 64.1959C88.8591 64.1959 89.2911 63.9795 89.7636 63.5874C90.2361 63.1952 90.4521 62.7624 90.4521 62.3567C90.4521 62.1403 90.3846 61.9645 90.2361 61.7481L84.8901 53.9718L84.9171 53.9448Z" fill="#545454"/>
<path d="M98.9289 47.4803C96.9849 47.4803 95.284 48.1701 93.907 49.4684C92.503 50.8072 91.8145 52.3625 91.8145 54.1747V57.434C91.8145 59.4626 92.53 61.126 94.0555 62.3837C95.5405 63.655 97.4439 64.2636 99.7524 64.2636C101.345 64.2636 102.682 63.9796 103.762 63.398C104.842 62.7895 105.382 62.235 105.382 61.667C105.382 61.3018 105.274 60.9502 104.99 60.5851C104.734 60.2199 104.41 60.0441 104.018 60.0441C103.843 60.0441 103.33 60.2605 102.506 60.6933C101.683 61.126 100.805 61.3424 99.874 61.3424C98.5374 61.3424 97.498 61.0178 96.661 60.3281C95.8375 59.6384 95.4325 58.7323 95.4325 57.5827V56.7848H102.614C103.087 56.7848 103.478 56.7443 103.775 56.7172C104.072 56.6902 104.383 56.5684 104.72 56.3926C105.085 56.2168 105.328 55.9193 105.476 55.4865C105.652 55.0538 105.733 54.4722 105.733 53.7825C105.733 51.9433 105.085 50.4556 103.748 49.2655C102.412 48.1024 100.819 47.4939 98.9425 47.4939L98.9289 47.4803ZM102.074 54.2829C101.899 54.4317 101.575 54.4993 101.062 54.4993H95.4325V53.3768C95.4325 52.4707 95.7565 51.7133 96.445 51.1048C97.1335 50.4962 97.957 50.1987 98.902 50.1987C99.847 50.1987 100.711 50.5232 101.359 51.1453C102.007 51.7945 102.331 52.5518 102.331 53.4579C102.331 53.8907 102.263 54.1477 102.074 54.2829Z" fill="#545454"/>
<path d="M126.172 47.5073C124.403 47.5073 122.891 48.1565 121.622 49.4277C120.353 50.699 119.705 52.2137 119.705 53.9447V57.6638C119.705 59.3949 120.353 60.9231 121.649 62.1808C122.945 63.5197 124.471 64.1688 126.158 64.1688C127.846 64.1688 129.412 63.4791 130.708 62.1808C132.004 60.8419 132.652 59.3273 132.652 57.6232V53.9042C132.652 52.1731 132.004 50.6449 130.708 49.3872C129.439 48.1159 127.886 47.5073 126.158 47.5073H126.172ZM130.438 57.6638C130.438 58.8539 130.006 59.8682 129.169 60.7743C128.332 61.6804 127.333 62.1132 126.131 62.1132C124.93 62.1132 123.971 61.6804 123.134 60.7743C122.311 59.8682 121.906 58.8269 121.906 57.6638H121.946V53.9447C121.946 52.8222 122.338 51.8485 123.175 50.9424C123.998 50.0363 125.011 49.6035 126.172 49.6035C127.333 49.6035 128.305 50.0363 129.169 50.9424C129.992 51.8079 130.438 52.8222 130.438 53.9447V57.6638Z" fill="#545454"/>
<path d="M117.37 47.4803H116.29C115.345 47.4803 114.522 47.7643 113.725 48.3459C112.929 48.9274 112.348 49.6171 111.957 50.4015V48.8868C111.957 48.5217 111.808 48.2377 111.484 48.0213C111.16 47.8049 110.769 47.6967 110.323 47.6967C109.824 47.6967 109.378 47.8049 109.054 48.0213C108.73 48.2377 108.555 48.4946 108.555 48.8462V62.7624C108.555 63.0464 108.703 63.3439 109.054 63.5603C109.419 63.8173 109.81 63.9255 110.323 63.9255C110.836 63.9255 111.268 63.8173 111.619 63.5603C111.984 63.3033 112.159 63.0193 112.159 62.7353V55.7164C112.159 54.2288 112.551 53.0387 113.388 52.1055C114.225 51.1724 115.197 50.699 116.277 50.699H117.357C117.721 50.699 118.005 50.5503 118.302 50.2257C118.558 49.9011 118.693 49.5089 118.693 49.0626C118.693 48.6163 118.585 48.2647 118.302 47.9401C118.045 47.6156 117.721 47.4668 117.357 47.4668L117.37 47.4803Z" fill="#545454"/>
<path d="M141.98 47.5073C140.927 47.5073 139.996 47.7643 139.199 48.2646C138.403 48.765 137.822 49.3871 137.431 50.1445V48.5486C137.431 48.3323 137.363 48.1564 137.147 47.9671C136.931 47.7913 136.715 47.7102 136.432 47.7102C136.108 47.7102 135.851 47.7778 135.635 47.9265C135.46 48.1024 135.352 48.2917 135.352 48.5351V63.0328C135.352 63.2898 135.46 63.5061 135.608 63.6414C135.824 63.8172 136.081 63.9254 136.405 63.9254C136.729 63.9254 136.985 63.8172 137.201 63.6414C137.458 63.4656 137.566 63.2492 137.566 63.0328V53.9177C137.566 52.6194 137.957 51.5645 138.794 50.7666C139.591 49.9687 140.522 49.5765 141.616 49.5765C142.777 49.5765 143.776 50.0092 144.613 50.9153C145.436 51.7809 145.882 52.7952 145.882 53.9177V63.0328C145.882 63.3168 145.99 63.5332 146.206 63.6819C146.462 63.8578 146.678 63.9389 146.962 63.9389C147.245 63.9389 147.542 63.8307 147.758 63.6819C147.974 63.5332 148.082 63.3168 148.082 63.0328V53.8906C148.082 52.1595 147.475 50.6313 146.273 49.3736C145.085 48.1024 143.641 47.4938 142.007 47.4938L141.98 47.5073Z" fill="#545454"/>
<path d="M31.5645 38.3246C31.2 38.1082 30.8085 38 30.2955 38C29.769 38 29.3235 38.1082 28.9995 38.3246C28.6755 38.541 28.5 38.825 28.5 39.1901V63.0193C28.5 63.3033 28.6755 63.6009 28.9995 63.8443C29.364 64.1012 29.7555 64.2365 30.2685 64.2365C30.714 64.2365 31.1595 64.1012 31.5375 63.8443C31.902 63.5873 32.0775 63.3033 32.0775 63.0193V39.1901C32.118 38.825 31.929 38.541 31.578 38.3246H31.5645Z" fill="#545454"/>
<path d="M160.544 56.5549C161.016 56.5549 161.367 56.5143 161.664 56.4873C161.948 56.4196 162.245 56.3114 162.569 56.1627C162.893 55.9869 163.149 55.7299 163.284 55.3377C163.433 54.9455 163.5 54.4316 163.5 53.7825C163.5 51.9703 162.893 50.4961 161.624 49.2925C160.355 48.1295 158.883 47.5209 157.142 47.5209C155.4 47.5209 153.821 48.17 152.552 49.4007C151.283 50.6314 150.635 52.119 150.635 53.8501V57.6774C150.635 59.6248 151.323 61.2206 152.619 62.3837C153.996 63.5738 155.724 64.1959 157.884 64.1959C159.329 64.1959 160.557 63.939 161.529 63.4386C162.501 62.9382 163.014 62.4243 163.014 61.9509C163.014 61.7346 162.906 61.5182 162.731 61.2612C162.555 61.0043 162.339 60.8961 162.083 60.8961C161.907 60.8961 161.691 61.0448 161.367 61.2612C160.949 61.5452 160.503 61.7751 160.031 61.9509C159.45 62.2079 158.762 62.3161 158.006 62.3161C156.494 62.3161 155.265 61.8833 154.293 61.0854C153.321 60.2604 152.849 59.165 152.849 57.8261V56.5549H160.544ZM152.849 53.5526C152.849 52.4301 153.24 51.4563 154.077 50.6179C154.901 49.7929 155.913 49.3872 157.115 49.3872C158.316 49.3872 159.356 49.8199 160.152 50.6855C160.976 51.551 161.381 52.5653 161.381 53.6878C161.381 54.1611 161.273 54.4857 161.057 54.6345C160.8 54.7832 160.368 54.8509 159.68 54.8509H152.862V53.5526H152.849Z" fill="#545454"/>
<path d="M42.0001 47.8049C41.6356 47.5885 41.2036 47.4803 40.6636 47.4803C40.1236 47.4803 39.7186 47.5885 39.3946 47.8049L34.5616 50.8478C34.3456 51.0642 34.2376 51.3482 34.3051 51.7945C34.3456 52.2273 34.5211 52.6194 34.8856 52.9846C35.2096 53.3497 35.6011 53.5932 36.0466 53.7014C36.4921 53.8096 36.8026 53.7419 37.0186 53.5526L38.9356 52.3625V63.0329C38.9356 63.3169 39.1111 63.6144 39.4351 63.8579C39.7591 64.1013 40.1911 64.2501 40.7041 64.2501C41.2171 64.2501 41.6491 64.1013 42.0001 63.8579C42.3646 63.6009 42.5401 63.3169 42.5401 63.0329V48.6299C42.5401 48.2647 42.3646 48.0213 42.0001 47.8049Z" fill="#545454"/>
<path d="M72.2539 59.9088C72.1459 59.9088 71.7139 60.0847 71.0254 60.4498C70.3099 60.8149 69.5404 60.9908 68.6764 60.9908C66.1519 60.9908 64.8829 59.8006 64.8829 57.3799V54.3099C64.8829 51.8891 66.1519 50.699 68.6359 50.699C69.4999 50.699 70.2559 50.8748 70.9444 51.1994C71.6599 51.524 72.0649 51.6998 72.1729 51.6998C72.5644 51.6998 72.8884 51.524 73.1854 51.1183C73.4689 50.7531 73.6174 50.3609 73.6174 49.9552C73.6174 49.3061 73.1179 48.7245 72.1054 48.2241C71.0929 47.7238 69.8644 47.4668 68.3929 47.4668C66.0439 47.4668 64.3159 48.0754 63.1279 49.3466C61.9399 50.6179 61.3594 52.2813 61.3594 54.2964V57.4069C61.3594 59.4625 61.9669 61.126 63.1279 62.3296C64.3159 63.6009 66.0844 64.2095 68.4334 64.2095C69.9454 64.2095 71.2144 63.9255 72.2539 63.3845C73.2934 62.8435 73.8064 62.262 73.8064 61.6129C73.8064 61.2207 73.6579 60.8149 73.3744 60.4498C73.0909 60.0847 72.7264 59.9088 72.2539 59.9088Z" fill="#545454"/>
<path d="M51.3824 47.4397C50.1539 47.4397 48.9659 47.6561 47.8859 48.0888C46.7654 48.5216 46.2254 49.0626 46.2254 49.6441C46.2254 50.1174 46.3334 50.5502 46.5899 50.9154C46.8464 51.3075 47.1299 51.4969 47.5349 51.4969C47.6024 51.4969 48.0344 51.2805 48.7634 50.9154C49.4789 50.5232 50.3564 50.3338 51.3284 50.3338C52.4489 50.3338 53.3129 50.699 53.8529 51.4563C54.3929 52.2137 54.6764 53.0792 54.6764 54.1341V54.7832H53.1914C50.5859 54.7832 48.6419 55.1484 47.2649 55.8651C45.8879 56.5819 45.2129 57.8531 45.2129 59.6924C45.2129 61.18 45.6449 62.3025 46.5494 63.0599C47.3729 63.8172 48.4664 64.2229 49.8029 64.2229C51.6794 64.2229 53.4074 63.3168 54.9329 61.5452V62.7353C54.9329 63.0599 55.0814 63.3168 55.4054 63.5603C55.7294 63.8172 56.0939 63.9254 56.5664 63.9254C57.0389 63.9254 57.4709 63.8172 57.7949 63.5603C58.1189 63.3439 58.2944 63.0599 58.2944 62.7353V54.1341C58.2944 52.2137 57.7139 50.6314 56.5934 49.3601C55.4729 48.0888 53.7449 47.4397 51.3959 47.4397H51.3824ZM54.6629 58.0695C54.6629 58.8945 54.2714 59.6924 53.4749 60.4227C52.7189 61.1395 51.8819 61.5046 51.0179 61.5046C50.3699 61.5046 49.8299 61.2882 49.4249 60.9231C49.0334 60.5579 48.8174 59.9764 48.8174 59.2596C48.8174 58.5429 49.0739 58.029 49.5734 57.6638C50.0729 57.2716 50.6534 57.0552 51.3014 56.947C51.9494 56.8388 52.7864 56.7983 53.7854 56.7983H54.6494V58.0695H54.6629Z" fill="#545454"/>
</g>
<defs>
<clipPath id="clip0_17099_42323">
<rect width="135" height="26.25" fill="white" transform="translate(28.5 38)"/>
</clipPath>
</defs>
</svg>
