<svg xmlns:xlink="http://www.w3.org/1999/xlink"  width="193" height="109" viewBox="0 0 193 109" fill="none" xmlns="http://www.w3.org/2000/svg">
<g clip-path="url(#clip0_18672_46158)">
<path d="M122.935 45.7342C122.935 45.7342 124.166 45.7667 124.498 45.7667C124.83 45.7667 126.251 45.7189 126.251 45.7189V45.9621C125.477 46.0753 125.227 46.2859 125.667 47.372L128.208 53.643L130.671 46.8366C130.764 46.4153 130.813 46.1722 130.055 45.9616V45.7347C130.055 45.7347 131.239 45.7672 131.681 45.7672C132.25 45.7509 132.929 45.7347 132.929 45.7347V45.9616C132.013 45.9616 131.808 46.1722 131.35 47.3878L127.939 55.8148H127.655C127.655 55.8148 124.514 47.9543 124.246 47.4193C123.756 46.3829 123.772 46.0738 122.935 45.9611V45.7342H122.935ZM16.4956 47.565V51.6975C16.4956 55.1007 16.4956 55.1007 15.3904 55.2946V55.6027C15.3904 55.6027 16.4639 55.5215 17.2982 55.5215C18.1326 55.5215 19.193 55.6027 19.193 55.6027V55.2941C18.0888 55.1007 18.0888 55.1007 18.0888 51.6971V47.565C18.0888 44.1623 18.0888 44.1623 19.194 43.9827V43.6737C19.194 43.6737 18.1354 43.7215 17.2978 43.7215C16.4602 43.7215 15.39 43.6737 15.39 43.6737V43.9818C16.5105 44.1599 16.4951 44.1599 16.4951 47.5641M61.3797 43.934C60.5091 43.655 59.6072 43.4919 58.6962 43.4487C56.4385 43.4487 54.7019 45.1018 54.7019 46.8357C54.7019 50.7413 60.5905 49.6537 60.5905 52.6853C60.5905 55.1165 57.4333 56.0402 55.412 54.3871C54.9857 54.047 54.9225 53.3506 54.8275 52.9126H54.4646L54.5912 55.1327C55.6018 55.5487 56.6758 55.779 57.7642 55.8133C60.5905 55.7971 61.9953 53.855 61.9953 52.0701C61.9953 48.1482 56.0597 49.2344 56.0751 46.2525C56.0909 44.0969 58.6013 43.5462 60.449 44.6156C60.9069 44.8425 61.1117 46.0418 61.1117 46.0418H61.4588L61.3801 43.935L61.3797 43.934ZM62.0581 47.5641L62.2159 45.7166C62.2159 45.7166 65.4838 45.7643 66.2101 45.7643C66.9365 45.7643 70.2682 45.7166 70.2682 45.7166L70.3473 47.5641H70.0946C69.8419 46.4459 69.5102 46.2677 67.9788 46.2677H66.9053V53.8856C66.9053 55.0682 66.937 55.2311 67.9788 55.3281V55.6037C67.9788 55.6037 66.937 55.5559 66.2106 55.5559C65.4842 55.5559 64.4266 55.6037 64.4266 55.6037V55.3281C65.4838 55.2325 65.5154 55.0525 65.5154 53.8856V46.2668H64.4266C62.8948 46.2668 62.5793 46.445 62.295 47.5631L62.0581 47.5641ZM86.5129 45.6674C86.5129 45.6674 88.5026 45.6998 89.4495 45.6998C90.4267 45.6998 92.1805 45.6674 92.4331 45.6674C92.4494 45.9917 92.5913 46.9804 92.623 47.2722L92.402 47.3372C92.0548 46.4134 91.7235 46.0079 88.692 46.2353V50.1572C91.502 50.1734 91.8808 50.2384 91.9594 49.1689H92.2121C92.1442 49.9934 92.1232 50.8213 92.1493 51.6483H91.8966C91.8501 50.6276 91.4867 50.6931 88.692 50.6931V54.923C91.3596 55.1012 92.4811 55.0042 92.8915 53.6592L93.16 53.7547L92.6863 55.5697C92.6863 55.5697 89.356 55.522 88.7711 55.522C87.8242 55.522 86.5134 55.5697 86.5134 55.5697V55.3104C87.2872 55.1972 87.3975 55.1805 87.4291 53.8999V47.3869C87.4133 46.0576 87.129 46.0256 86.5134 45.9281V45.6688L86.5129 45.6674ZM97.3911 43.6278C97.3911 43.6278 98.5274 43.6756 99.3329 43.6756C100.138 43.6756 101.259 43.6278 101.259 43.6278V43.9359C100.738 44.0978 100.106 43.9837 100.106 45.9453V51.0179C100.106 53.0435 100.58 53.4973 100.58 53.4973C100.864 53.9569 101.262 54.3302 101.734 54.5782C102.206 54.8262 102.734 54.94 103.263 54.9077C103.764 54.9204 104.26 54.7984 104.7 54.5539C105.141 54.3094 105.512 53.9509 105.776 53.514C105.776 53.514 106.186 53.109 106.218 51.1315V45.9611C106.187 44.1461 106.028 44.1623 104.781 43.9354V43.6278C104.781 43.6278 105.476 43.6756 106.596 43.6756C107.448 43.6756 108.159 43.6278 108.159 43.6278V43.9359C107.433 44.0978 106.991 44.1953 107.007 45.8942V51.5824C107.023 53.5598 106.03 54.4349 106.03 54.4349C106.03 54.4349 104.941 55.7637 102.604 55.7637C101.93 55.7942 101.259 55.6587 100.646 55.3683C100.034 55.078 99.4978 54.6413 99.0835 54.0948C99.0835 54.0948 98.4492 53.4314 98.4492 51.0322V45.9611C98.4492 44.1461 98.2124 44.0649 97.3916 43.9354V43.6278H97.3911ZM108.41 45.718C108.41 45.718 108.978 45.7505 109.61 45.7505C109.915 45.7556 110.221 45.7448 110.525 45.718L117.108 53.3836V47.3873C117.108 46.2529 116.888 46.0743 115.956 45.9611V45.718C115.956 45.718 116.747 45.7658 117.377 45.7658C118.024 45.7658 118.735 45.718 118.735 45.718V45.9611C117.977 46.2205 117.772 46.2692 117.772 47.3711V55.7651L117.283 55.7173L110.431 47.7279V53.8536C110.431 54.7769 110.557 55.1666 111.52 55.3285V55.5717C111.52 55.5717 110.747 55.5239 110.084 55.5239C109.484 55.5239 108.71 55.5717 108.71 55.5717V55.3285C109.641 55.1666 109.799 54.7773 109.799 53.8536V47.3873C109.799 46.3179 109.089 46.1397 108.409 45.9611L108.41 45.718ZM167.898 45.7347C167.898 45.7347 168.767 45.7672 169.43 45.7672C170.093 45.7672 171.024 45.7347 171.024 45.7347V45.9941C170.425 46.1722 170.077 46.2042 170.488 46.8849L172.525 50.288L174.451 46.9011C174.688 46.3986 174.814 46.1073 173.867 45.9616V45.7347C173.867 45.7347 174.514 45.7672 175.13 45.7672C175.683 45.7672 176.251 45.7347 176.251 45.7347V45.9616C175.635 46.1073 175.619 46.2697 175.209 46.8849L172.73 50.8235L172.762 53.8698C172.762 55.1991 173.094 55.1504 173.867 55.3285V55.5717C173.867 55.5717 172.873 55.5239 172.145 55.5239C171.418 55.5239 170.393 55.5717 170.393 55.5717V55.3285C171.277 55.1504 171.387 55.2153 171.419 53.8861L171.434 50.8235L168.988 46.9178C168.404 46.1402 168.451 46.124 167.898 45.9941V45.7347ZM33.6416 45.6688C33.6416 45.6688 34.5415 45.6855 35.3168 45.6855C36.0743 45.6855 36.9919 45.6688 36.9919 45.6688V45.9281C36.2814 46.0093 35.9975 46.2845 36.1711 46.8514L38.9165 53.6415L41.2859 46.8514C41.4594 46.155 41.3012 46.0093 40.3385 45.9281V45.6688C40.3385 45.6688 41.0648 45.6855 41.6646 45.6855C42.2802 45.6855 43.0862 45.6688 43.0862 45.6688V45.9281C42.4073 46.0093 42.2807 46.2845 42.0597 46.8357L38.7271 55.7489H38.3799L36.0906 50.1127L33.7854 55.7489H33.5169L29.9935 46.8361C29.7408 46.2529 29.6622 46.1555 28.8572 45.9286C28.8572 45.6368 28.8414 45.6693 28.8414 45.6693C28.8414 45.6693 29.7255 45.686 30.4835 45.686C31.2569 45.686 32.1884 45.6693 32.1884 45.6693V45.9286C31.4151 46.0098 31.194 46.2849 31.3839 46.8686L34.0199 53.6425L35.7709 49.348L34.7937 46.8519C34.4624 46.1555 34.4145 46.1068 33.6416 45.9286V45.6693V45.6688ZM77.562 47.5655L77.7198 45.718C77.7198 45.718 80.9877 45.7658 81.7145 45.7658C82.4414 45.7658 85.7721 45.718 85.7721 45.718L85.8512 47.5655H85.5967C85.344 46.4473 85.0127 46.2692 83.4809 46.2692H82.4074V53.8856C82.4074 55.0682 82.439 55.2311 83.4809 55.3281V55.6037C83.4809 55.6037 82.439 55.5559 81.7127 55.5559C80.9863 55.5559 79.9286 55.6037 79.9286 55.6037V55.3281C80.9858 55.2325 81.0175 55.0525 81.0175 53.8856V46.2668H79.9296C78.3978 46.2668 78.0823 46.445 77.798 47.5631L77.562 47.5655ZM156.768 48.9272V52.3466C156.768 55.1647 156.784 55.1647 155.868 55.3285V55.5874C155.868 55.5874 156.768 55.5229 157.447 55.5229C158.142 55.5229 159.026 55.5874 159.026 55.5874V55.3285C158.11 55.1666 158.11 55.1666 158.11 52.3466V48.9268C158.11 46.123 158.11 46.123 159.026 45.9773V45.718C159.026 45.718 158.142 45.7505 157.447 45.7505C156.768 45.7505 155.868 45.718 155.868 45.718V45.9773C156.799 46.123 156.768 46.123 156.768 48.9268M120.693 48.9268V52.3462C120.693 55.1642 120.709 55.1642 119.793 55.3281V55.5869C119.793 55.5869 120.693 55.5225 121.372 55.5225C122.067 55.5225 122.951 55.5869 122.951 55.5869V55.3281C122.035 55.1661 122.035 55.1661 122.035 52.3462V48.9268C122.035 46.123 122.035 46.123 122.951 45.9773V45.718C122.951 45.718 122.067 45.7505 121.372 45.7505C120.693 45.7505 119.793 45.718 119.793 45.718V45.9773C120.724 46.123 120.693 46.123 120.693 48.9268ZM132.911 45.718C132.911 45.718 134.9 45.7505 135.847 45.7505C136.824 45.7505 138.578 45.718 138.831 45.718C138.847 46.0418 138.989 47.031 139.02 47.3224L138.799 47.3873C138.452 46.4636 138.12 46.0581 135.089 46.2854V50.2073C137.899 50.2235 138.278 50.2885 138.357 49.2191H138.609C138.541 50.0436 138.52 50.8715 138.546 51.6985H138.293C138.247 50.6778 137.883 50.7432 135.089 50.7432V54.9732C137.756 55.1513 138.878 55.0544 139.288 53.7093L139.557 53.8049C139.431 54.2911 139.083 55.6199 139.083 55.6199C139.083 55.6199 135.752 55.5721 135.167 55.5721C134.221 55.5721 132.91 55.6199 132.91 55.6199V55.3605C133.683 55.2473 133.794 55.2316 133.825 53.9506V47.4361C133.81 46.1068 133.636 46.0098 132.91 45.9773V45.718H132.911ZM159.438 47.5655L159.596 45.718C159.596 45.718 162.864 45.7658 163.59 45.7658C164.317 45.7658 167.648 45.718 167.648 45.718L167.727 47.5655H167.475C167.222 46.4473 166.891 46.2692 165.359 46.2692H164.283V53.8856C164.283 55.0682 164.315 55.2311 165.357 55.3281V55.6037C165.357 55.6037 164.315 55.5559 163.589 55.5559C162.862 55.5559 161.805 55.6037 161.805 55.6037V55.3281C162.862 55.2325 162.893 55.0525 162.893 53.8856V46.2668H161.805C160.273 46.2668 159.957 46.445 159.673 47.5631L159.438 47.5655ZM154.273 45.9444C153.56 45.7212 152.823 45.5906 152.079 45.5556C150.217 45.5556 148.779 46.9169 148.779 48.3426C148.779 51.5514 153.626 50.6601 153.626 53.1562C153.626 55.1494 151.037 55.9113 149.363 54.55C149.016 54.2744 148.968 53.6902 148.889 53.3349H148.589L148.699 55.1666C149.528 55.5134 150.411 55.7054 151.305 55.7336C153.626 55.7173 154.795 54.113 154.795 52.6385C154.795 49.4135 149.901 50.3047 149.917 47.8578C149.933 46.0905 152.001 45.6373 153.516 46.5123C153.895 46.6905 154.053 47.6787 154.053 47.6787H154.353L154.274 45.9444H154.273ZM43.9344 45.6688C43.9344 45.6688 44.5501 45.685 45.1499 45.685C45.7655 45.685 46.302 45.6688 46.302 45.6688L49.5704 54.4344C49.6522 54.6865 49.8056 54.9076 50.011 55.0694C50.2163 55.2311 50.4641 55.326 50.7225 55.3419V55.6013C50.7225 55.6013 49.8226 55.5535 49.0646 55.5535C48.3066 55.5535 47.375 55.6013 47.375 55.6013V55.3419C47.9743 55.2464 48.3694 55.2287 48.0697 54.4344L47.0437 51.5208H43.8707L42.7507 54.4344C42.4505 55.2287 43.0662 55.2607 43.5715 55.3419V55.6013C43.5715 55.6013 42.9084 55.5535 42.2923 55.5535C41.6921 55.5535 40.9974 55.6013 40.9974 55.6013C40.9974 55.6013 40.9815 55.6662 40.9815 55.3582C41.518 55.148 41.5976 55.148 41.8973 54.4349L45.0545 46.8524C45.3071 46.1397 44.6599 46.091 43.934 45.9129V45.6688H43.9344ZM46.8078 50.79L45.5426 47.1433L44.1392 50.79H46.8078ZM43.9344 45.6688C43.9344 45.6688 44.5501 45.685 45.1499 45.685C45.7655 45.685 46.302 45.6688 46.302 45.6688L49.5704 54.4344C49.6522 54.6865 49.8056 54.9076 50.011 55.0694C50.2163 55.2311 50.4641 55.326 50.7225 55.3419V55.6013C50.7225 55.6013 49.8226 55.5535 49.0646 55.5535C48.3066 55.5535 47.375 55.6013 47.375 55.6013V55.3419C47.9743 55.2464 48.3694 55.2287 48.0697 54.4344L47.0437 51.5208H43.8707L42.7507 54.4344C42.4505 55.2287 43.0662 55.2607 43.5715 55.3419V55.6013C43.5715 55.6013 42.9084 55.5535 42.2923 55.5535C41.6921 55.5535 40.9974 55.6013 40.9974 55.6013C40.9974 55.6013 40.9815 55.6662 40.9815 55.3582C41.518 55.148 41.5976 55.148 41.8973 54.4349L45.0545 46.8524C45.3071 46.1397 44.6599 46.091 43.934 45.9129V45.6688H43.9344ZM46.8078 50.79L45.5426 47.1433L44.1392 50.79H46.8078ZM72.0359 45.718C72.0359 45.718 72.6511 45.7342 73.2513 45.7342C73.867 45.7342 74.4035 45.718 74.4035 45.718L77.6714 54.485C77.7532 54.7371 77.9066 54.9583 78.112 55.12C78.3173 55.2818 78.5651 55.3767 78.8235 55.3925V55.6514C78.8235 55.6514 77.9241 55.6037 77.1661 55.6037C76.4081 55.6037 75.4765 55.6514 75.4765 55.6514V55.3925C76.0763 55.297 76.4709 55.2793 76.1707 54.485L75.148 51.5686H71.9726L70.8559 54.485C70.5557 55.2793 71.1714 55.3113 71.6767 55.3925V55.6514C71.6767 55.6514 71.0136 55.6037 70.3975 55.6037C69.7977 55.6037 69.1026 55.6514 69.1026 55.6514C69.1026 55.6514 69.0872 55.7164 69.0872 55.4088C69.6237 55.1981 69.7028 55.1981 70.0025 54.485L73.1597 46.9006C73.4123 46.1875 72.7651 46.1393 72.0392 45.9611V45.718H72.0359ZM74.9093 50.8387L73.6478 47.192L72.2425 50.8383L74.9093 50.8387ZM72.0359 45.718C72.0359 45.718 72.6511 45.7342 73.2513 45.7342C73.867 45.7342 74.4035 45.718 74.4035 45.718L77.6714 54.485C77.7532 54.7371 77.9066 54.9583 78.112 55.12C78.3173 55.2818 78.5651 55.3767 78.8235 55.3925V55.6514C78.8235 55.6514 77.9241 55.6037 77.1661 55.6037C76.4081 55.6037 75.4765 55.6514 75.4765 55.6514V55.3925C76.0763 55.297 76.4709 55.2793 76.1707 54.485L75.148 51.5686H71.9726L70.8559 54.485C70.5557 55.2793 71.1714 55.3113 71.6767 55.3925V55.6514C71.6767 55.6514 71.0136 55.6037 70.3975 55.6037C69.7977 55.6037 69.1026 55.6514 69.1026 55.6514C69.1026 55.6514 69.0872 55.7164 69.0872 55.4088C69.6237 55.1981 69.7028 55.1981 70.0025 54.485L73.1597 46.9006C73.4123 46.1875 72.7651 46.1393 72.0392 45.9611V45.718H72.0359ZM74.9093 50.8387L73.6478 47.192L72.2425 50.8383L74.9093 50.8387ZM175.501 54.6598C175.501 54.7683 175.47 54.8744 175.412 54.9647C175.353 55.055 175.27 55.1255 175.172 55.1671C175.075 55.2088 174.967 55.2198 174.863 55.1987C174.76 55.1777 174.664 55.1255 174.59 55.0489C174.515 54.9722 174.464 54.8745 174.443 54.7681C174.423 54.6617 174.433 54.5514 174.473 54.4512C174.514 54.3509 174.582 54.2652 174.67 54.205C174.758 54.1447 174.861 54.1125 174.967 54.1125C175.037 54.1123 175.107 54.1263 175.171 54.1537C175.236 54.1812 175.295 54.2215 175.345 54.2723C175.394 54.3232 175.434 54.3836 175.461 54.4501C175.488 54.5166 175.501 54.5879 175.501 54.6598ZM174.528 54.6598C174.53 54.7487 174.557 54.835 174.606 54.908C174.656 54.981 174.725 55.0375 174.805 55.0703C174.886 55.1031 174.974 55.1108 175.058 55.0924C175.143 55.074 175.221 55.0303 175.281 54.9669C175.342 54.9034 175.383 54.8231 175.399 54.7358C175.415 54.6486 175.406 54.5583 175.372 54.4764C175.339 54.3946 175.282 54.3247 175.21 54.2756C175.138 54.2264 175.054 54.2003 174.967 54.2004C174.85 54.2021 174.738 54.2514 174.656 54.3374C174.573 54.4235 174.528 54.5394 174.528 54.6598ZM174.86 54.9741H174.786V54.3484H174.976C174.999 54.3447 175.024 54.3467 175.046 54.3542C175.069 54.3617 175.09 54.3746 175.107 54.3917C175.124 54.4089 175.137 54.4299 175.144 54.453C175.152 54.4762 175.154 54.5009 175.151 54.5252C175.154 54.5453 175.153 54.5659 175.149 54.5857C175.144 54.6055 175.135 54.6241 175.123 54.6404C175.111 54.6567 175.096 54.6703 175.079 54.6806C175.062 54.6908 175.043 54.6974 175.023 54.7L175.162 54.9741H175.078L174.946 54.7043H174.859L174.86 54.9741ZM174.954 54.6226C175.043 54.6226 175.074 54.5963 175.074 54.5271C175.074 54.4578 175.04 54.4315 174.966 54.4315H174.862V54.6226H174.954ZM41.82 61.1863C41.82 61.1863 42.6576 61.2021 43.0513 61.2021C43.4617 61.2021 44.1876 61.1863 44.2988 61.1863C44.2988 61.332 44.3621 61.737 44.3779 61.8669L44.2848 61.8994C44.1429 61.5106 44.0005 61.3324 42.7376 61.4294V63.0663C43.9056 63.0825 44.0638 63.114 44.0954 62.6612H44.2057C44.1741 63.0663 44.1741 63.3094 44.1741 63.6987H44.081C44.0652 63.2774 43.9075 63.2936 42.739 63.2936V65.0762C43.8595 65.1411 44.3179 65.1087 44.4914 64.5417L44.6017 64.5742C44.5552 64.7848 44.4123 65.3355 44.4123 65.3355C44.4123 65.3355 43.0071 65.3198 42.7702 65.3198C42.3756 65.3198 41.8233 65.3355 41.8233 65.3355V65.24C42.1388 65.1922 42.1862 65.175 42.2021 64.6406V61.918C42.2021 61.3511 42.076 61.3511 41.8233 61.3024V61.1882L41.82 61.1863ZM58.0815 61.1863C58.0815 61.1863 58.9191 61.2021 59.3127 61.2021C59.7231 61.2021 60.449 61.1863 60.5603 61.1863C60.5603 61.332 60.6235 61.737 60.6394 61.8669L60.5463 61.8994C60.4044 61.5106 60.262 61.3324 58.9991 61.4294V63.0663C60.1671 63.0825 60.3253 63.114 60.3569 62.6612H60.4672C60.4355 63.0663 60.4355 63.3094 60.4355 63.6987H60.3425C60.3267 63.2774 60.1689 63.2936 59.0005 63.2936V65.0762C60.121 65.1411 60.5793 65.1087 60.7529 64.5417L60.8632 64.5742C60.8166 64.7848 60.6738 65.3355 60.6738 65.3355C60.6738 65.3355 59.2685 65.3198 59.0317 65.3198C58.6371 65.3198 58.0848 65.3355 58.0848 65.3355V65.24C58.4002 65.1922 58.4477 65.175 58.4635 64.6406V61.918C58.4635 61.3511 58.3374 61.3511 58.0848 61.3024V61.1882L58.0815 61.1863ZM90.5747 61.2021C90.5747 61.2021 91.4122 61.2183 91.8059 61.2183C92.2163 61.2183 92.9422 61.2021 93.0529 61.2021C93.0529 61.3482 93.1162 61.7532 93.132 61.8827L93.039 61.9152C92.8971 61.5259 92.7547 61.3482 91.4918 61.4452V63.0796C92.6597 63.0959 92.818 63.1274 92.8496 62.6746H92.9599C92.9282 63.0796 92.9282 63.3228 92.9282 63.7111H92.8352C92.8194 63.2903 92.6616 63.306 91.4932 63.306V65.0886C92.6141 65.1535 93.072 65.1211 93.2456 64.5541L93.3559 64.5866C93.3093 64.7972 93.1665 65.3479 93.1665 65.3479C93.1665 65.3479 91.7612 65.3317 91.5244 65.3317C91.1298 65.3317 90.5774 65.3479 90.5774 65.3479V65.2524C90.8929 65.2047 90.9404 65.1879 90.9562 64.653V61.9305C90.9562 61.3635 90.8301 61.3635 90.5774 61.3153V61.2016L90.5747 61.2021ZM46.4774 61.1863C46.4774 61.1863 46.7301 61.2021 46.9827 61.2021C47.2512 61.2021 47.3932 61.1863 47.3932 61.1863L50.1246 64.3951V61.8856C50.1246 61.4156 50.0315 61.3348 49.6509 61.2856V61.1901C49.6509 61.1901 49.9822 61.2059 50.2348 61.2059C50.5192 61.2059 50.803 61.1901 50.803 61.1901V61.2856C50.4875 61.3993 50.4084 61.4156 50.4084 61.8856V65.4019L50.2032 65.3857L47.3308 62.0288V64.5895C47.3308 64.9783 47.3773 65.1402 47.7887 65.2214V65.3169C47.7887 65.3169 47.4574 65.3007 47.1889 65.3007C46.9362 65.3007 46.6049 65.3169 46.6049 65.3169V65.2214C46.9995 65.1402 47.0628 64.9783 47.0628 64.5895V61.8856C47.0628 61.448 46.7626 61.3668 46.4788 61.2856V61.1901L46.4774 61.1863ZM70.3329 61.1863C70.3329 61.1863 70.5855 61.2021 70.8382 61.2021C70.9699 61.204 71.1016 61.1987 71.2328 61.1863L73.9782 64.3951V61.8856C73.9782 61.4156 73.8851 61.3348 73.5045 61.2856V61.1901C73.5045 61.1901 73.8358 61.2059 74.0884 61.2059C74.3727 61.2059 74.6566 61.1901 74.6566 61.1901V61.2856C74.3411 61.3993 74.262 61.4156 74.262 61.8856V65.4019L74.0568 65.3857L71.1849 62.0288V64.5895C71.1849 64.9783 71.2314 65.1402 71.6427 65.2214V65.3169C71.6427 65.3169 71.3114 65.3007 71.0429 65.3007C70.7903 65.3007 70.459 65.3169 70.459 65.3169V65.2214C70.8535 65.1402 70.9168 64.9783 70.9168 64.5895V61.8856C70.9168 61.448 70.6167 61.3668 70.3329 61.2856V61.1901V61.1863ZM106.915 61.1863C106.915 61.1863 107.168 61.2021 107.421 61.2021C107.547 61.2044 107.673 61.1992 107.799 61.1863L110.562 64.3951V61.8856C110.562 61.4156 110.469 61.3348 110.088 61.2856V61.1901C110.088 61.1901 110.42 61.2059 110.672 61.2059C110.957 61.2059 111.24 61.1901 111.24 61.1901V61.2856C110.925 61.3993 110.846 61.4156 110.846 61.8856V65.4019L110.641 65.3838L107.768 62.0288V64.5895C107.768 64.9783 107.814 65.1402 108.226 65.2214V65.3169C108.226 65.3169 107.894 65.3007 107.626 65.3007C107.373 65.3007 107.042 65.3169 107.042 65.3169V65.2214C107.436 65.1402 107.5 64.9783 107.5 64.5895V61.8856C107.5 61.448 107.2 61.3668 106.916 61.2856V61.1901L106.915 61.1863ZM136.088 61.2021C136.088 61.2021 136.451 61.2183 136.736 61.2183C137.02 61.2183 137.414 61.2021 137.414 61.2021V61.3157C137.162 61.3807 137.02 61.3969 137.193 61.6883L138.046 63.1312L138.867 61.705C138.977 61.4781 139.024 61.3644 138.63 61.3V61.2044C138.63 61.2044 138.898 61.2207 139.166 61.2207C139.387 61.2207 139.64 61.2044 139.64 61.2044V61.3C139.372 61.3644 139.372 61.4294 139.198 61.6888L138.14 63.3605L138.156 64.6573C138.156 65.2242 138.298 65.208 138.63 65.2892V65.3847C138.63 65.3847 138.204 65.3685 137.888 65.3685C137.588 65.3685 137.146 65.3847 137.146 65.3847V65.2892C137.525 65.208 137.573 65.2414 137.589 64.6735V63.3586L136.547 61.7055C136.294 61.3816 136.326 61.3649 136.089 61.3167V61.2021H136.088ZM85.0318 61.9457L85.1109 61.1844C85.1109 61.1844 86.4687 61.2001 86.786 61.2001C87.0862 61.2001 88.4756 61.1844 88.4756 61.1844L88.5072 61.9457H88.4142C88.3039 61.492 88.1615 61.4113 87.5301 61.4113H87.0722V64.6033C87.0722 65.0895 87.088 65.1703 87.5301 65.2032V65.3164C87.5301 65.3164 87.088 65.3002 86.7884 65.3002C86.4729 65.3002 86.0308 65.3164 86.0308 65.3164V65.2032C86.4729 65.1707 86.4887 65.0895 86.4887 64.6033V61.4113H86.0308C85.3994 61.4113 85.2575 61.4925 85.1467 61.9457H85.0318ZM30.5012 61.267C30.2 61.1656 29.8871 61.1057 29.5705 61.0889C29.2331 61.0626 28.8987 61.1708 28.637 61.3911C28.3753 61.6113 28.2063 61.9267 28.1653 62.2715C28.1653 63.649 30.2336 63.2597 30.2336 64.3296C30.2336 65.1717 29.1285 65.496 28.4189 64.9128C28.2611 64.7996 28.2453 64.5565 28.2137 64.4103H28.0876L28.1341 65.1879C28.4871 65.3278 28.8609 65.4044 29.2392 65.4143C29.5929 65.4536 29.9473 65.347 30.2244 65.1181C30.5016 64.8891 30.6788 64.5565 30.7171 64.1935C30.7202 64.1632 30.7224 64.1327 30.7236 64.1023C30.7236 62.7405 28.6394 63.114 28.6394 62.0766C28.6553 61.3153 29.5235 61.1213 30.1708 61.4934C30.3444 61.5746 30.4076 61.9959 30.4076 61.9959H30.5338L30.5016 61.2646L30.5012 61.267ZM38.6 62.5318V63.958C38.6 65.1411 38.6 65.1411 38.2213 65.2223V65.3179C38.2213 65.3179 38.5842 65.2854 38.8843 65.2854C39.1687 65.2854 39.5316 65.3179 39.5316 65.3179V65.2223C39.1528 65.1411 39.1528 65.1411 39.1528 63.958V62.5318C39.1528 61.3329 39.1528 61.3329 39.5316 61.2837V61.1691C39.5316 61.1691 39.1687 61.1853 38.8843 61.1853C38.5842 61.1853 38.2213 61.1691 38.2213 61.1691V61.2823C38.6 61.3301 38.6 61.3301 38.6 62.5304M36.2795 61.2985C35.8557 61.1873 35.4216 61.1222 34.9845 61.1041C34.4112 61.0869 33.8547 61.3041 33.4373 61.708C33.0199 62.1118 32.7759 62.6693 32.7589 63.2578V63.2917C32.7589 64.653 33.7058 65.4473 35.0008 65.4473C35.4047 65.4534 35.8062 65.382 36.1846 65.2367L36.4056 64.556L36.2795 64.5235C36.2278 64.7117 36.1168 64.8769 35.964 64.9935C35.691 65.1399 35.388 65.2177 35.0799 65.2204C34.8522 65.2178 34.6273 65.1692 34.4179 65.0773C34.2085 64.9854 34.0188 64.8521 33.8596 64.685C33.7005 64.5179 33.5749 64.3202 33.4901 64.1033C33.4054 63.8863 33.3631 63.6544 33.3657 63.4207C33.3657 63.3677 33.3694 63.3146 33.3745 63.2616C33.3745 61.6892 34.4164 61.3167 35.0324 61.3167C35.3481 61.2948 35.6625 61.3741 35.9324 61.5436C36.0153 61.6055 36.0838 61.6856 36.133 61.778C36.1821 61.8705 36.2107 61.9729 36.2167 62.078L36.3428 62.0456L36.2795 61.3004V61.2985ZM55.9033 61.2823C55.4795 61.1713 55.0455 61.1063 54.6084 61.0884C54.0349 61.0711 53.4782 61.2885 53.0608 61.6925C52.6435 62.0966 52.3995 62.6543 52.3828 63.243V63.2769C52.3828 64.6382 53.3297 65.4325 54.6247 65.4325C55.0286 65.4386 55.4301 65.3671 55.8084 65.2219L56.0295 64.5412L55.9033 64.5087C55.8513 64.6967 55.7405 64.8619 55.5879 64.9787C55.3149 65.1254 55.0118 65.2031 54.7038 65.2056C54.4759 65.2032 54.2508 65.1548 54.0412 65.063C53.8316 64.9713 53.6417 64.838 53.4823 64.6709C53.3229 64.5037 53.1972 64.306 53.1123 64.0889C53.0274 63.8718 52.9851 63.6397 52.9877 63.4059C52.9877 63.3529 52.9914 63.2998 52.9965 63.2468C52.9965 61.6749 54.0384 61.3019 54.6544 61.3019C54.97 61.2798 55.2845 61.3589 55.5544 61.5283C55.6373 61.5903 55.7058 61.6705 55.755 61.763C55.8041 61.8555 55.8327 61.958 55.8387 62.0632L55.9657 62.0288L55.9024 61.2833L55.9033 61.2823ZM98.6563 61.2985C98.2325 61.1873 97.7984 61.1222 97.3613 61.1041C96.7879 61.0869 96.2313 61.3042 95.8139 61.7081C95.3966 62.1121 95.1526 62.6697 95.1357 63.2583V63.2917C95.1357 64.653 96.0826 65.4473 97.3776 65.4473C97.7815 65.4534 98.183 65.382 98.5614 65.2367L98.7824 64.556L98.6563 64.5235C98.6045 64.7117 98.4936 64.8769 98.3408 64.9935C98.0678 65.14 97.7648 65.2177 97.4567 65.2204C97.229 65.2178 97.0041 65.1692 96.7947 65.0773C96.5853 64.9854 96.3956 64.8521 96.2364 64.685C96.0773 64.5179 95.9517 64.3202 95.8669 64.1033C95.7822 63.8863 95.7399 63.6544 95.7425 63.4207C95.7425 63.3677 95.7462 63.3146 95.7513 63.2616C95.7513 61.6892 96.7932 61.3167 97.4092 61.3167C97.7249 61.2947 98.0393 61.374 98.3092 61.5436C98.3921 61.6055 98.4606 61.6856 98.5098 61.778C98.5589 61.8705 98.5875 61.9729 98.5935 62.078L98.7196 62.0456L98.6563 61.3004V61.2985ZM21.3125 61.203C21.3125 61.203 21.9756 61.2192 22.3702 61.2192H23.8071L23.9002 61.9161L23.8211 61.9319C23.6317 61.5268 23.5368 61.3974 22.8904 61.3974C22.6847 61.3927 22.479 61.4035 22.2748 61.4299V63.1804H22.7802C23.5377 63.1804 23.5712 63.1327 23.6484 62.7429H23.7415C23.7415 62.7429 23.7257 63.1647 23.7257 63.3266C23.7257 63.6022 23.7415 63.8128 23.7415 63.8128H23.6484C23.5693 63.424 23.5382 63.3911 22.7802 63.3911H22.2767V64.4605C22.2767 65.2056 22.2767 65.2219 22.7187 65.2725V65.3537C22.7187 65.3537 22.1664 65.3374 22.0082 65.3374C21.85 65.3374 21.3135 65.3537 21.3135 65.3537V65.2725C21.6764 65.2075 21.7081 65.1913 21.7081 64.4605V62.0933C21.7081 61.3482 21.6922 61.364 21.3135 61.2995V61.204L21.3125 61.203ZM119.388 61.203V61.2842C119.609 61.332 119.767 61.332 119.767 61.8841V64.6874C119.767 65.1574 119.704 65.2223 119.388 65.271V65.3666C119.388 65.3666 120.098 65.3341 120.382 65.3503C120.667 65.3503 121.945 65.3666 121.945 65.3666C122 65.1021 122.074 64.8422 122.166 64.589L122.04 64.5565C121.947 64.8479 121.835 65.091 121.299 65.091H120.333V61.8817C120.333 61.331 120.507 61.331 120.744 61.2818V61.2006H119.389L119.388 61.203ZM101.768 63.051H103.853V62.0613C103.853 61.3969 103.821 61.3162 103.49 61.2833V61.1877H104.785V61.2833C104.469 61.3157 104.437 61.3969 104.437 62.0613V64.4275C104.437 65.0595 104.469 65.1727 104.785 65.2051V65.3183C104.785 65.3183 104.374 65.3021 104.169 65.3021C103.98 65.3021 103.49 65.3183 103.49 65.3183V65.2051C103.821 65.1727 103.853 65.0595 103.853 64.4275V63.3419H101.769V64.4275C101.769 65.0595 101.8 65.1727 102.132 65.2051V65.3183C102.132 65.3183 101.642 65.3021 101.437 65.3021C101.248 65.3021 100.837 65.3183 100.837 65.3183V65.2051C101.153 65.1727 101.184 65.0595 101.184 64.4275V62.0613C101.184 61.3969 101.153 61.3162 100.837 61.2833V61.1877H102.132V61.2833C101.801 61.3157 101.769 61.3969 101.769 62.0613L101.768 63.051ZM133.705 61.3816C133.314 61.2197 132.896 61.1371 132.474 61.1385C132.193 61.1312 131.913 61.1808 131.65 61.2846C131.388 61.3883 131.148 61.5441 130.944 61.743C130.741 61.9419 130.577 62.1801 130.463 62.444C130.349 62.7078 130.287 62.9922 130.28 63.2807V63.3423C130.28 64.6229 131.303 65.3518 132.427 65.3518C132.929 65.3541 133.427 65.2607 133.895 65.0762V63.8109C133.883 63.7252 133.905 63.638 133.956 63.5687C134.006 63.4994 134.082 63.4535 134.165 63.4412C134.175 63.4412 134.185 63.4412 134.195 63.4384V63.3252C134.195 63.3252 133.8 63.3414 133.595 63.3414C133.39 63.3414 132.932 63.3252 132.932 63.3252V63.4384C133.106 63.4861 133.374 63.4704 133.374 63.8109V64.9286C133.113 65.0921 132.811 65.1711 132.506 65.1555C131.732 65.1555 130.911 64.6367 130.911 63.3404C130.911 61.5092 132.127 61.331 132.443 61.331C132.853 61.331 133.611 61.5417 133.626 62.1086H133.752L133.706 61.3797L133.705 61.3816ZM15.2504 63.2932C15.2423 62.8565 15.3612 62.4274 15.5919 62.0604C15.8225 61.6935 16.1545 61.4054 16.5453 61.233C16.9362 61.0606 17.3682 61.0116 17.7863 61.0924C18.2044 61.1731 18.5896 61.38 18.8926 61.6864C19.1957 61.9929 19.4029 62.3851 19.4878 62.813C19.5728 63.2409 19.5315 63.6851 19.3694 64.0888C19.2073 64.4926 18.9317 64.8376 18.5777 65.0798C18.2237 65.322 17.8074 65.4505 17.382 65.4487C17.1055 65.4523 16.831 65.3999 16.5742 65.2945C16.3175 65.1891 16.0834 65.0329 15.8855 64.8347C15.6875 64.6364 15.5296 64.4001 15.4206 64.1393C15.3116 63.8784 15.2538 63.598 15.2504 63.3142V63.2932ZM18.8654 63.2932C18.8654 61.9314 18.1549 61.3482 17.3811 61.3482C16.6072 61.3482 15.8972 61.9333 15.8972 63.2932C15.8972 64.653 16.6077 65.2381 17.3815 65.2381C18.1554 65.2381 18.8659 64.6549 18.8659 63.2932M66.071 61.1825C66.071 61.1825 66.3274 61.1892 66.5768 61.1892C66.8262 61.1892 67.0561 61.1825 67.0561 61.1825L68.4157 64.8292C68.4498 64.9341 68.5136 65.0261 68.599 65.0933C68.6845 65.1606 68.7876 65.2 68.895 65.2066V65.3145C68.895 65.3145 68.5228 65.2945 68.2054 65.2945C67.8881 65.2945 67.5028 65.3145 67.5028 65.3145V65.2066C67.7527 65.166 67.9165 65.1588 67.7918 64.8292L67.366 63.616H66.0459L65.5806 64.8292C65.4554 65.1593 65.7118 65.1731 65.9221 65.2066V65.3145C65.9221 65.3145 65.6462 65.2945 65.3903 65.2945C65.1343 65.2945 64.8519 65.3145 64.8519 65.3145C64.8519 65.3145 64.8454 65.3413 64.8454 65.2133C65.0687 65.1254 65.1018 65.1254 65.2265 64.8311L66.5401 61.6787C66.6452 61.3821 66.3758 61.3621 66.0747 61.2875V61.1868L66.071 61.1825ZM67.2659 63.3127L66.7406 61.7958L66.1562 63.3127H67.2659ZM76.9325 61.1863V61.2995C77.2954 61.332 77.2954 61.395 77.3112 62.0771V64.4271C77.3112 65.1402 77.3112 65.1722 76.9325 65.2209V65.3164C76.9325 65.3164 77.2479 65.3002 77.4532 65.3002C77.6584 65.3002 78.1479 65.3479 78.5583 65.3479C80.3423 65.3479 80.9105 64.2136 80.9105 63.2411C80.9174 62.6891 80.7106 62.1568 80.3354 61.7613C79.9602 61.3658 79.4474 61.1394 78.9096 61.1318C78.8668 61.1318 78.824 61.1318 78.7812 61.1342C78.5285 61.1342 78.0236 61.1987 77.455 61.1987C77.2815 61.1987 76.9343 61.1829 76.9343 61.1829L76.9325 61.1863ZM77.8794 61.4619C78.1058 61.3984 78.3394 61.3663 78.5741 61.3664C79.1897 61.3664 80.2795 61.6257 80.2795 63.2769C80.2795 64.8651 79.4419 65.1244 78.6848 65.1244C78.4141 65.1206 78.1443 65.0886 77.8799 65.0289V61.4619H77.8794ZM113.073 63.2769C113.065 62.8403 113.184 62.4111 113.414 62.0442C113.645 61.6772 113.977 61.3892 114.368 61.2168C114.759 61.0443 115.191 60.9954 115.609 61.0761C116.027 61.1569 116.412 61.3637 116.715 61.6702C117.018 61.9767 117.225 62.3689 117.31 62.7968C117.395 63.2247 117.354 63.6689 117.192 64.0726C117.03 64.4763 116.754 64.8213 116.4 65.0636C116.046 65.3058 115.63 65.4342 115.204 65.4325C114.928 65.436 114.653 65.3836 114.397 65.2783C114.14 65.1729 113.906 65.0166 113.708 64.8184C113.51 64.6202 113.352 64.3839 113.243 64.123C113.134 63.8621 113.076 63.5818 113.073 63.2979V63.2769ZM116.688 63.2769C116.688 61.9156 115.977 61.332 115.203 61.332C114.43 61.332 113.719 61.9152 113.719 63.2769C113.719 64.6387 114.429 65.2219 115.203 65.2219C115.978 65.2219 116.69 64.6377 116.69 63.2764M123.934 63.2764C123.926 62.8398 124.045 62.4107 124.275 62.0437C124.506 61.6768 124.838 61.3887 125.229 61.2163C125.62 61.0439 126.052 60.9949 126.47 61.0757C126.888 61.1564 127.273 61.3632 127.576 61.6697C127.879 61.9762 128.086 62.3684 128.171 62.7963C128.256 63.2242 128.215 63.6684 128.053 64.0721C127.891 64.4759 127.615 64.8209 127.261 65.0631C126.907 65.3053 126.491 65.4337 126.065 65.432C125.789 65.4355 125.514 65.3831 125.258 65.2778C125.001 65.1724 124.767 65.0162 124.569 64.8179C124.371 64.6197 124.213 64.3834 124.104 64.1225C123.995 63.8617 123.937 63.5813 123.934 63.2974V63.2764ZM127.549 63.2764C127.549 61.9152 126.839 61.3315 126.064 61.3315C125.29 61.3315 124.58 61.9147 124.58 63.2764C124.58 64.6382 125.291 65.2214 126.064 65.2214C126.838 65.2214 127.549 64.6382 127.549 63.2764ZM19.5578 50.6281C19.5421 49.6024 19.8231 48.595 20.3652 47.7332C20.9072 46.8714 21.6861 46.194 22.6032 45.7866C23.5204 45.3791 24.5346 45.26 25.5177 45.4443C26.5008 45.6286 27.4086 46.1079 28.1263 46.8218C28.844 47.5356 29.3394 48.4519 29.5497 49.4547C29.7601 50.4575 29.6761 51.5019 29.3083 52.4557C28.9404 53.4095 28.3053 54.2299 27.4832 54.8132C26.6612 55.3965 25.6891 55.7164 24.6898 55.7326H24.6098C23.2874 55.7503 22.0123 55.2282 21.065 54.2809C20.1177 53.3337 19.5757 52.039 19.5583 50.6816V50.6281M28.0992 50.6281C28.0992 47.4356 26.4241 46.0256 24.6093 46.0256C22.7778 46.0256 21.1045 47.4356 21.1045 50.6281C21.1045 53.8531 22.7797 55.2464 24.6093 55.2464C26.4241 55.2464 28.0992 53.8526 28.0992 50.6281ZM146.759 53.5465C146.365 52.8983 145.307 51.1965 144.628 50.6295C145.228 50.3539 146.838 50.1433 146.838 48.2958C146.838 46.3671 144.96 45.7166 143.348 45.7027C142.654 45.7027 141.706 45.8159 141.249 45.8159C140.869 45.8159 140.033 45.7834 140.033 45.7834V46.0103C140.665 46.0915 140.949 46.3179 140.949 47.3878V53.8536C140.949 55.0849 140.696 55.3123 140.033 55.3935V55.6204C140.033 55.6204 141.075 55.5879 141.596 55.5879C142.48 55.6041 143.223 55.6041 143.223 55.6041V55.3935C142.513 55.2473 142.37 55.2153 142.307 53.8536V50.8879C143.365 50.7924 144.059 51.6168 144.817 52.8166C145.361 53.7858 145.967 54.717 146.632 55.6041C146.853 55.6041 147.423 55.5879 147.705 55.5879C148.02 55.5879 148.605 55.6204 148.605 55.6204V55.3935C147.739 55.2631 147.754 55.1661 146.76 53.5465M142.308 50.4189V46.4321C143.318 46.0108 145.355 46.124 145.402 48.3283C145.449 50.5636 143.191 50.6443 142.308 50.4175V50.4189Z" fill="#4D536E"/>
</g>
<defs>
<clipPath id="clip0_18672_46158">
<rect width="161" height="22" fill="white" transform="translate(15.25 43.4487)"/>
</clipPath>
</defs>
</svg>
