<svg width="151" height="53" viewBox="0 0 151 53" fill="none" xmlns="http://www.w3.org/2000/svg">
<g clip-path="url(#clip0_5223_13464)">
<path d="M1.89452 25.8858C1.89452 26.9502 1.87908 27.8641 1.90996 28.7747C1.91548 28.9285 2.08865 29.1317 2.23976 29.2163C6.48965 31.6132 10.7484 33.9924 14.996 36.3937C15.3468 36.5914 15.5751 36.4552 15.8498 36.3003C20.2794 33.8123 24.7113 31.3276 29.1421 28.8417C29.9385 28.3947 30.3234 28.6209 30.3234 29.5393C30.3234 31.1134 30.3157 32.6886 30.33 34.2627C30.3322 34.5724 30.2451 34.7515 29.9605 34.9108C25.2198 37.557 20.4846 40.2131 15.7538 42.8768C15.4604 43.0416 15.2387 43.0405 14.9453 42.8768C10.2145 40.2131 5.47819 37.5592 0.742979 34.902C0.427519 34.7251 0.192578 34.01 0.422003 33.7804C0.687828 33.5168 0.984538 33.3564 1.43346 33.6113C5.82122 36.0993 10.2299 38.55 14.6177 41.038C15.1361 41.3324 15.5111 41.3642 16.0527 41.0556C20.0997 38.7477 24.1664 36.475 28.2387 34.2121C28.6623 33.9771 28.8465 33.7211 28.8189 33.2279C28.7748 32.4348 28.8068 31.6373 28.8068 30.7289C28.5156 30.8761 28.3391 30.9574 28.1704 31.0518C24.1223 33.3213 20.0699 35.5819 16.0373 37.8777C15.5189 38.1721 15.1538 38.1534 14.6464 37.8656C10.0524 35.259 5.44289 32.6776 0.830117 30.1039C0.499215 29.9193 0.364647 29.7304 0.370162 29.3459C0.393325 27.7356 0.377884 26.1241 0.381193 24.5127C0.382296 23.8426 0.831221 23.59 1.43015 23.9261C5.89513 26.4262 10.3623 28.923 14.8185 31.4385C15.2023 31.656 15.4814 31.6626 15.8696 31.444C20.0059 29.1076 24.151 26.7876 28.3027 24.4786C28.6678 24.2754 28.8355 24.0524 28.8178 23.6218C28.7836 22.8013 28.8079 21.9785 28.8079 21.0426C28.5388 21.1733 28.3479 21.2546 28.1681 21.3557C24.0561 23.6614 19.9441 25.9648 15.8387 28.2826C15.5034 28.4715 15.253 28.5067 14.8946 28.3046C10.2167 25.6595 5.52782 23.0319 0.83894 20.4066C0.552158 20.2462 0.351412 20.1023 0.361339 19.7091C0.370163 19.3499 0.534512 19.2005 0.806955 19.0478C5.49584 16.4214 10.1836 13.7938 14.8615 11.1476C15.2321 10.9378 15.4935 10.9598 15.8498 11.1619C19.2647 13.0963 22.6873 15.0186 26.1166 16.9278C26.5258 17.1551 26.8478 17.3869 26.6482 17.8867C26.4982 18.2624 25.7504 18.3898 25.3268 18.1526C22.1424 16.3675 18.9569 14.5858 15.7781 12.7931C15.4979 12.635 15.2795 12.5844 14.9729 12.7569C10.98 15.0109 6.97828 17.2507 2.97988 19.4949C2.88502 19.5476 2.79788 19.6124 2.65118 19.7091C2.81553 19.8222 2.93466 19.9211 3.06812 19.9958C6.9871 22.1949 10.9094 24.3863 14.8218 26.5987C15.2056 26.8151 15.4869 26.8184 15.8729 26.5998C20.264 24.1172 24.665 21.6545 29.0649 19.1862C29.8414 18.7501 30.3201 19.0203 30.3212 19.8903C30.3212 21.4469 30.3135 23.0023 30.3278 24.5588C30.33 24.8653 30.2473 25.0465 29.9649 25.2047C25.2088 27.8608 20.4581 30.5257 15.7152 33.2048C15.3986 33.3839 15.1869 33.3103 14.9144 33.1576C10.8212 30.8574 6.72348 28.5638 2.62692 26.2702C2.42617 26.1571 2.2188 26.056 1.89342 25.8869L1.89452 25.8858Z" fill="#1C1C1C"/>
<path d="M93.7156 34.0083C93.7156 34.2194 93.7156 34.4304 93.7156 34.6426C93.7156 34.8549 93.7156 35.0791 93.7156 35.3464H91.084V18.0352H93.7168V24.8108C93.9367 24.7136 94.1052 24.6933 94.1853 24.5973C96.4822 21.8504 101.866 22.4091 103.468 26.9858C104.443 29.7711 103.574 32.8777 101.367 34.5467C99.1939 36.1893 96.2456 36.0371 94.251 34.1822C94.1446 34.0839 94.0156 34.0096 93.8972 33.9244L93.7144 34.0083H93.7156ZM101.144 29.3622C101.154 27.1356 99.507 25.3995 97.3798 25.3923C95.2716 25.3851 93.608 27.0937 93.5961 29.2783C93.5841 31.5096 95.2262 33.2434 97.3559 33.2494C99.4568 33.2554 101.135 31.5336 101.144 29.3622Z" fill="#1C1C1C"/>
<path d="M49.4311 24.6788V18.0195H52.1177V35.356H49.5303C49.4969 34.85 49.4646 34.3596 49.4252 33.7565C49.1897 33.9124 49.0762 33.9567 49.0045 34.0383C46.9525 36.3763 42.9394 36.1761 40.83 33.633C38.1972 30.4604 39.1545 25.3071 42.7302 23.5374C44.8539 22.4858 47.2489 22.8515 48.9639 24.487C49.0475 24.5673 49.1467 24.6309 49.2387 24.7028L49.4323 24.6776L49.4311 24.6788ZM42.0514 29.2434C42.0036 31.422 43.6218 33.187 45.7204 33.2457C47.8405 33.3045 49.5578 31.6067 49.614 29.3957C49.669 27.2135 48.009 25.439 45.8721 25.3946C43.7795 25.3503 42.1004 27.0421 42.0514 29.2434Z" fill="#1C1C1C"/>
<path d="M86.3102 24.8155C86.3413 24.2064 86.3628 23.7783 86.3867 23.3107H88.9765V35.35H86.3903C86.364 34.8536 86.3377 34.3704 86.3066 33.7937C86.1023 33.8992 85.9577 33.9291 85.8824 34.0191C83.6643 36.6533 78.8588 36.1869 76.9634 32.4735C75.3715 29.3537 76.3945 25.4054 79.252 23.7268C81.396 22.4678 84.0264 22.758 85.8143 24.4498C85.9206 24.5505 86.0497 24.626 86.3102 24.8179V24.8155ZM86.4716 29.3154C86.468 27.1164 84.8307 25.403 82.7249 25.3946C80.5977 25.3862 78.9102 27.1272 78.915 29.3261C78.9197 31.5023 80.5833 33.2385 82.6747 33.2493C84.8056 33.2601 86.474 31.5311 86.4704 29.3154H86.4716Z" fill="#1C1C1C"/>
<path d="M63.774 23.304H66.3566V35.3649H63.7453V33.7594C63.4931 33.9021 63.3414 33.944 63.2553 34.0436C60.9595 36.709 56.0513 36.149 54.2395 32.2391C52.7181 28.9562 54.0064 24.9611 57.0779 23.4995C59.1752 22.5007 61.5188 22.8676 63.2099 24.4551C63.3163 24.5546 63.4453 24.6277 63.6939 24.8076C63.725 24.2273 63.7489 23.7872 63.774 23.304ZM63.8648 29.3051C63.8588 27.1121 62.2251 25.4107 60.1074 25.3927C57.9885 25.3747 56.3094 27.1217 56.3166 29.3351C56.3237 31.5208 57.9754 33.2402 60.0775 33.2486C62.206 33.257 63.8708 31.5232 63.8636 29.3039L63.8648 29.3051Z" fill="#1C1C1C"/>
<path d="M130.787 18.0176H133.415C133.415 18.261 133.415 18.4756 133.415 18.689C133.415 21.4851 133.413 24.2812 133.421 27.0761C133.421 27.2811 133.505 27.485 133.55 27.69C133.74 27.5761 133.962 27.4945 134.115 27.3423C135.345 26.1193 136.55 24.8699 137.796 23.6649C138.021 23.4479 138.401 23.3052 138.719 23.286C139.56 23.2345 140.406 23.268 141.385 23.268C141.14 23.533 141.003 23.6925 140.855 23.8424C139.464 25.2428 138.082 26.6528 136.672 28.0341C136.317 28.3818 136.269 28.6024 136.611 29.0089C138.23 30.9297 139.814 32.8805 141.409 34.8205C141.532 34.9704 141.646 35.1274 141.842 35.3828C140.732 35.3828 139.728 35.3984 138.726 35.366C138.576 35.3612 138.407 35.1562 138.289 35.0087C137.058 33.4908 135.841 31.9621 134.605 30.4489C134.46 30.2714 134.075 30.0292 134.051 30.0544C133.81 30.3098 133.458 30.6072 133.444 30.9081C133.379 32.2234 133.416 33.5423 133.414 34.8613C133.414 35.0159 133.395 35.1718 133.382 35.36H130.787V18.0176Z" fill="#1C1C1C"/>
<path d="M129.376 24.9174C128.836 25.433 128.295 25.9498 127.765 26.4546C125.004 25.0146 123.031 25.1393 121.671 26.8155C120.524 28.2291 120.517 30.3945 121.653 31.8069C123.009 33.4916 125.006 33.621 127.805 32.1774C128.28 32.6822 128.767 33.199 129.253 33.7146C126.323 36.4555 122.069 36.1809 119.788 33.8237C117.407 31.3645 117.514 26.9486 120.014 24.6273C122.521 22.2976 127.123 22.4199 129.376 24.9186V24.9174Z" fill="#1C1C1C"/>
<path d="M150.427 25.6173C149.743 25.989 149.069 26.3559 148.357 26.742C148.204 26.5262 148.077 26.3319 147.936 26.1485C147.382 25.4327 146.677 25.0646 145.753 25.2073C145.114 25.3068 144.657 25.6905 144.581 26.2324C144.496 26.8259 144.791 27.254 145.294 27.4914C145.867 27.7612 146.479 27.9458 147.068 28.1808C147.676 28.4242 148.311 28.6244 148.875 28.9458C150.916 30.1112 151.242 32.7322 149.581 34.3929C147.251 36.7237 142.743 35.7849 141.623 32.6699C142.31 32.309 143.008 31.9433 143.71 31.5752C143.916 31.8797 144.086 32.1735 144.298 32.4325C144.992 33.2862 146.121 33.6123 147.092 33.255C147.596 33.0692 147.936 32.7442 148.001 32.1807C148.069 31.5908 147.829 31.1412 147.307 30.9133C146.634 30.6208 145.927 30.4122 145.242 30.1496C144.724 29.9505 144.187 29.7755 143.711 29.4973C141.526 28.2192 141.421 25.2264 143.49 23.7517C145.674 22.1954 149.055 22.9807 150.337 25.344C150.372 25.4111 150.387 25.489 150.43 25.6149L150.427 25.6173Z" fill="#1C1C1C"/>
<path d="M75.797 33.1673V35.413C74.5661 35.5641 73.3459 35.7127 72.1436 35.3387C70.8039 34.9226 69.9996 33.708 69.9554 31.9658C69.9064 30.0307 69.9147 28.0931 69.9386 26.1567C69.9446 25.6123 69.8 25.3893 69.2359 25.4468C68.789 25.4912 68.3336 25.4564 67.8496 25.4564V23.2694C68.3623 23.2694 68.8702 23.2539 69.3757 23.2742C69.7881 23.291 69.941 23.1268 69.9339 22.7119C69.9147 21.676 69.9279 20.6388 69.9279 19.5537H72.5774C72.5774 20.5417 72.6169 21.5345 72.5631 22.5201C72.5284 23.1531 72.7615 23.3198 73.3471 23.279C73.9984 23.2347 74.6545 23.2694 75.3596 23.2694V25.4552C74.6366 25.4552 73.9088 25.4792 73.1833 25.4468C72.7172 25.4253 72.5583 25.5691 72.5667 26.0535C72.5953 27.6506 72.5774 29.2477 72.581 30.8448C72.581 31.0438 72.5882 31.2452 72.6133 31.4419C72.7889 32.804 73.2455 33.1936 74.6139 33.1673C74.9879 33.1601 75.3632 33.1673 75.7994 33.1673H75.797Z" fill="#1C1C1C"/>
<path d="M107.987 35.3672H105.357V23.3027H107.996V25.0557C108.701 24.4538 109.236 23.8986 109.864 23.4898C110.523 23.0605 111.298 22.9298 112.131 23.0689V25.6971C111.568 25.7631 111.026 25.7643 110.519 25.8986C109.149 26.2583 108.179 27.4669 108.083 29.1071C107.977 30.9176 108.013 32.7377 107.988 34.553C107.984 34.8084 107.988 35.065 107.988 35.366L107.987 35.3672Z" fill="#1C1C1C"/>
<path d="M116.512 35.3616H113.885V23.3164H116.512V35.3616Z" fill="#1C1C1C"/>
<path d="M113.54 19.5595C113.573 18.6446 114.295 17.9744 115.219 18.0008C116.121 18.0271 116.814 18.7633 116.793 19.6746C116.771 20.5954 115.998 21.3112 115.073 21.2692C114.174 21.2273 113.505 20.4827 113.538 19.5595H113.54Z" fill="#1C1C1C"/>
</g>
<defs>
<clipPath id="clip0_5223_13464">
<rect width="150" height="53" fill="white" transform="translate(0.330078)"/>
</clipPath>
</defs>
</svg>
